<svg xmlns="http://www.w3.org/2000/svg" width="363.08154296875" height="364.71258544921875" viewBox="-89.84088134765625 -76.64950561523438 363.08154296875 364.71258544921875"><title>Neo4j Graph Visualization</title><desc>Created using Neo4j (http://www.neo4j.com/)</desc><g class="layer relationships"><g class="relationship" transform="translate(135.79001901524921 259.06309029103056) rotate(330.0879596646429)"><path class="outline" fill="#A5ABB6" stroke="none" d="M 21.40063509461097,12.933012701892217 L 21.90063509461097,12.06698729810778 A 57.58148358241482 57.58148358241482 0 0 0 24.243670991618618,13.348235402749154 L 23.784361778851533,14.236511850183895 A 58.58148358241482 58.58148358241482 0 0 1 21.40063509461097,12.933012701892217 Z M 74.27386173991887,15.82510892907792 L 73.87130305734601,14.909714747817631 A 57.58148358241482 57.58148358241482 0 0 0 76.29025084695036,13.778297268952453 L 74.9565474217255,11.091061668275902 L 82.78275115273313,11.114195210207194 L 78.0685220805835,17.36127806985452 L 76.73481865535865,14.67404246917797 A 58.58148358241482 58.58148358241482 0 0 1 74.27386173991887,15.82510892907792"/><text text-anchor="middle" pointer-events="none" font-size="8px" fill="#000000" x="48.86481022452477" y="23.252714954452628" font-family="sans-serif">PRODUCED</text></g><g class="relationship" transform="translate(135.79001901524921 259.06309029103056) rotate(330.0879596646429)"><path class="outline" fill="#A5ABB6" stroke="none" d="M 25 0.5 L 25.642878079185515 0.5 L 25.642878079185515 -0.5 L 25 -0.5 Z M 72.53350307918552 0.5 L 73.17638115837103 0.5 L 73.17638115837103 3.5 L 80.17638115837103 0 L 73.17638115837103 -3.5 L 73.17638115837103 -0.5 L 72.53350307918552 -0.5 Z"/><text text-anchor="middle" pointer-events="none" font-size="8px" fill="#000000" x="49.088190579185515" y="3" font-family="sans-serif">DIRECTED</text></g><g class="relationship" transform="translate(135.79001901524921 259.06309029103056) rotate(330.0879596646429)"><path class="outline" fill="#A5ABB6" stroke="none" d="M 21.40063509461097,-12.933012701892217 L 21.90063509461097,-12.06698729810778 A 57.58148358241482 57.58148358241482 0 0 1 31.52058649242895,-16.496442553868505 L 31.18765324374058,-17.439392951247818 A 58.58148358241482 58.58148358241482 0 0 0 21.40063509461097,-12.933012701892217 Z M 66.68386297200244,-18.556242496789153 L 66.41086739203074,-17.594227209324387 A 57.58148358241482 57.58148358241482 0 0 1 76.29025084695036,-13.778297268952453 L 74.9565474217255,-11.091061668275902 L 82.78275115273313,-11.114195210207194 L 78.0685220805835,-17.36127806985452 L 76.73481865535865,-14.67404246917797 A 58.58148358241482 58.58148358241482 0 0 0 66.68386297200244,-18.556242496789153"/><text text-anchor="middle" pointer-events="none" font-size="8px" fill="#000000" x="48.86481022452475" y="-17.252714954452628" font-family="sans-serif">WROTE</text></g><g class="relationship" transform="translate(244.24067156147004 16.156463290760186) rotate(202.00315055427188)"><path class="outline" fill="#A5ABB6" stroke="none" d="M 24.018736134675446,6.953439040707552 L 24.277555179777966,5.987513214418485 A 99.5894989469219 99.5894989469219 0 0 0 30.74916696954103,7.492120001825953 L 30.55533079771526,8.473153914844218 A 100.5894989469219 100.5894989469219 0 0 1 24.018736134675446,6.953439040707552 Z M 66.31163012358547,9.058312796614345 L 66.14999877941598,8.071461587676566 A 99.5894989469219 99.5894989469219 0 0 0 72.66737823471024,6.779422200575567 L 71.98615689287065,3.8577895262952655 L 79.59805803167089,5.676844515329911 L 73.57567335716304,10.674932432949303 L 72.89445201532345,7.753299758669002 A 100.5894989469219 100.5894989469219 0 0 1 66.31163012358547,9.058312796614345"/><text text-anchor="middle" pointer-events="none" font-size="8px" fill="#000000" x="48.41544913165863" y="12.867542824503573" transform="rotate(180 48.41544913165863 9.867542824503573)" font-family="sans-serif">WROTE</text></g><g class="relationship" transform="translate(244.24067156147004 16.156463290760186) rotate(202.00315055427188)"><path class="outline" fill="#A5ABB6" stroke="none" d="M 24.018736134675446,-6.953439040707552 L 24.277555179777966,-5.987513214418485 A 99.5894989469219 99.5894989469219 0 0 1 25.355790026911144,-6.269967877247041 L 25.107797774377463,-7.238729892750982 A 100.5894989469219 100.5894989469219 0 0 0 24.018736134675446,-6.953439040707552 Z M 71.79663838185928,-8.002801966094765 L 71.58047840084701,-7.02644400785978 A 99.5894989469219 99.5894989469219 0 0 1 72.66737823471024,-6.779422200575567 L 71.98615689287065,-3.8577895262952655 L 79.59805803167089,-5.676844515329911 L 73.57567335716304,-10.674932432949303 L 72.89445201532345,-7.753299758669002 A 100.5894989469219 100.5894989469219 0 0 0 71.79663838185928,-8.002801966094765"/><text text-anchor="middle" pointer-events="none" font-size="8px" fill="#000000" x="48.415449131658605" y="-6.867542824503573" transform="rotate(180 48.415449131658605 -9.867542824503573)" font-family="sans-serif">DIRECTED</text></g><g class="relationship" transform="translate(47.038187123187505 -47.64950869273684) rotate(373.8516165392266)"><path class="outline" fill="#A5ABB6" stroke="none" d="M 24.018736134675446,6.953439040707552 L 24.277555179777966,5.987513214418485 A 99.39623459706235 99.39623459706235 0 0 0 30.70150475485327,7.482257738420799 L 30.507315417315798,8.463221805645873 A 100.39623459706235 100.39623459706235 0 0 1 24.018736134675446,6.953439040707552 Z M 66.2632115455255,9.048884463725344 L 66.10125310250412,8.06208688431299 A 99.39623459706235 99.39623459706235 0 0 0 72.5707097921495,6.778529532284162 L 71.8895718341979,3.856877417086748 L 79.5014210539354,5.676149649596665 L 73.47889373608497,10.674065685880715 L 72.79775577813336,7.7524135706833 A 100.39623459706235 100.39623459706235 0 0 1 66.2632115455255,9.048884463725344"/><text text-anchor="middle" pointer-events="none" font-size="8px" fill="#000000" x="48.36716569097704" y="12.860960040264601" font-family="sans-serif">WROTE</text></g><g class="relationship" transform="translate(47.038187123187505 -47.64950869273684) rotate(373.8516165392266)"><path class="outline" fill="#A5ABB6" stroke="none" d="M 24.018736134675446,-6.953439040707552 L 24.277555179777966,-5.987513214418485 A 99.39623459706235 99.39623459706235 0 0 1 25.308688978065994,-6.257886830538382 L 25.060243905402853,-7.226532816370877 A 100.39623459706235 100.39623459706235 0 0 0 24.018736134675446,-6.953439040707552 Z M 71.74786284009252,-7.991251309417379 L 71.53127434728313,-7.014988319858446 A 99.39623459706235 99.39623459706235 0 0 1 72.5707097921495,-6.778529532284162 L 71.8895718341979,-3.856877417086748 L 79.5014210539354,-5.676149649596665 L 73.47889373608497,-10.674065685880715 L 72.79775577813336,-7.7524135706833 A 100.39623459706235 100.39623459706235 0 0 0 71.74786284009252,-7.991251309417379"/><text text-anchor="middle" pointer-events="none" font-size="8px" fill="#000000" x="48.367165690977025" y="-6.860960040264601" font-family="sans-serif">DIRECTED</text></g><g class="relationship" transform="translate(-60.840881367777015 95.3487007990475) rotate(432.11629737719)"><path class="outline" fill="#A5ABB6" stroke="none" d="M 21.40063509461097,12.933012701892217 L 21.90063509461097,12.06698729810778 A 57.17497865964548 57.17497865964548 0 0 0 24.062054508390226,13.253492581388429 L 23.599858097730344,14.140270162280686 A 58.17497865964548 58.17497865964548 0 0 1 21.40063509461097,12.933012701892217 Z M 74.06824745031402,15.73382295720431 L 73.66291643740834,14.819652967554212 A 57.17497865964548 57.17497865964548 0 0 0 75.89488409448502,13.77187004763318 L 74.56177858579944,11.084337777554893 L 82.3879769761153,11.10921257237987 L 77.6723581060658,17.355246407737564 L 76.33925259738022,14.667714137659276 A 58.17497865964548 58.17497865964548 0 0 1 74.06824745031402,15.73382295720431"/><text text-anchor="middle" pointer-events="none" font-size="8px" fill="#000000" x="48.66792879763942" y="23.198252556551985" font-family="sans-serif">PRODUCED</text></g><g class="relationship" transform="translate(-60.840881367777015 95.3487007990475) rotate(432.11629737719)"><path class="outline" fill="#A5ABB6" stroke="none" d="M 25 0.5 L 31.005320863383858 0.5 L 31.005320863383858 -0.5 L 25 -0.5 Z M 66.77875836338386 0.5 L 72.78407922676772 0.5 L 72.78407922676772 3.5 L 79.78407922676772 0 L 72.78407922676772 -3.5 L 72.78407922676772 -0.5 L 66.77875836338386 -0.5 Z"/><text text-anchor="middle" pointer-events="none" font-size="8px" fill="#000000" x="48.89203961338386" y="3" font-family="sans-serif">WROTE</text></g><g class="relationship" transform="translate(-60.840881367777015 95.3487007990475) rotate(432.11629737719)"><path class="outline" fill="#A5ABB6" stroke="none" d="M 21.40063509461097,-12.933012701892217 L 21.90063509461097,-12.06698729810778 A 57.17497865964548 57.17497865964548 0 0 1 26.23480820527223,-14.328009702294601 L 25.81061362247163,-15.23358076848578 A 58.17497865964548 58.17497865964548 0 0 0 21.40063509461097,-12.933012701892217 Z M 71.79292139181268,-16.685484346207573 L 71.42670214329308,-15.754955753410044 A 57.17497865964548 57.17497865964548 0 0 1 75.89488409448502,-13.77187004763318 L 74.56177858579944,-11.084337777554893 L 82.3879769761153,-11.10921257237987 L 77.6723581060658,-17.355246407737564 L 76.33925259738022,-14.667714137659276 A 58.17497865964548 58.17497865964548 0 0 0 71.79292139181268,-16.685484346207573"/><text text-anchor="middle" pointer-events="none" font-size="8px" fill="#000000" x="48.667928797639405" y="-17.198252556551985" font-family="sans-serif">DIRECTED</text></g></g><g class="layer nodes"><g class="node" transform="translate(135.79001901524921,259.06309029103056)"><circle class="outline" cx="0" cy="0" r="25" fill="#57C7E3" stroke="#23b3d7" stroke-width="2px"/><text text-anchor="middle" pointer-events="none" font-family="sans-serif" dy="1.5625" font-size="25" fill="#2A2C34"/><text text-anchor="middle" pointer-events="none" font-family="sans-serif" dy="1.5625" font-size="25" fill="#2A2C34"/><text text-anchor="middle" pointer-events="none" x="0" y="0" font-size="10px" fill="#2A2C34" font-family="sans-serif"> Cameron</text><text text-anchor="middle" pointer-events="none" x="0" y="10" font-size="10px" fill="#2A2C34" font-family="sans-serif"> Crowe</text></g><g class="node" transform="translate(226.95606225114193,206.61479466302865)"><circle class="outline" cx="0" cy="0" r="25" fill="#F79767" stroke="#f36924" stroke-width="2px"/><text text-anchor="middle" pointer-events="none" font-family="sans-serif" dy="1.5625" font-size="25" fill="#FFFFFF"/><text text-anchor="middle" pointer-events="none" font-family="sans-serif" dy="1.5625" font-size="25" fill="#FFFFFF"/><text text-anchor="middle" pointer-events="none" x="0" y="0" font-size="10px" fill="#FFFFFF" font-family="sans-serif"> Jerry</text><text text-anchor="middle" pointer-events="none" x="0" y="10" font-size="10px" fill="#FFFFFF" font-family="sans-serif"> Maguire</text></g><g class="node" transform="translate(244.24067156147004,16.156463290760186)"><circle class="outline" cx="0" cy="0" r="25" fill="#57C7E3" stroke="#23b3d7" stroke-width="2px"/><text text-anchor="middle" pointer-events="none" font-family="sans-serif" dy="1.5625" font-size="25" fill="#2A2C34"/><text text-anchor="middle" pointer-events="none" font-family="sans-serif" dy="1.5625" font-size="25" fill="#2A2C34"/><text text-anchor="middle" pointer-events="none" x="0" y="0" font-size="10px" fill="#2A2C34" font-family="sans-serif"> Lana</text><text text-anchor="middle" pointer-events="none" x="0" y="10" font-size="10px" fill="#2A2C34" font-family="sans-serif"> Wacho…</text></g><g class="node" transform="translate(147.86668987210777,-22.787317359603513)"><circle class="outline" cx="0" cy="0" r="25" fill="#F79767" stroke="#f36924" stroke-width="2px"/><text text-anchor="middle" pointer-events="none" font-family="sans-serif" dy="1.5625" font-size="25" fill="#FFFFFF"/><text text-anchor="middle" pointer-events="none" font-family="sans-serif" dy="1.5625" font-size="25" fill="#FFFFFF"/><text text-anchor="middle" pointer-events="none" x="0" y="0" font-size="10px" fill="#FFFFFF" font-family="sans-serif"> Speed</text><text text-anchor="middle" pointer-events="none" x="0" y="10" font-size="10px" fill="#FFFFFF" font-family="sans-serif"> Racer</text></g><g class="node" transform="translate(47.038187123187505,-47.64950869273684)"><circle class="outline" cx="0" cy="0" r="25" fill="#57C7E3" stroke="#23b3d7" stroke-width="2px"/><text text-anchor="middle" pointer-events="none" font-family="sans-serif" dy="1.5625" font-size="25" fill="#2A2C34"/><text text-anchor="middle" pointer-events="none" font-family="sans-serif" dy="1.5625" font-size="25" fill="#2A2C34"/><text text-anchor="middle" pointer-events="none" x="0" y="0" font-size="10px" fill="#2A2C34" font-family="sans-serif"> Andy</text><text text-anchor="middle" pointer-events="none" x="0" y="10" font-size="10px" fill="#2A2C34" font-family="sans-serif"> Wacho…</text></g><g class="node" transform="translate(-60.840881367777015,95.3487007990475)"><circle class="outline" cx="0" cy="0" r="25" fill="#57C7E3" stroke="#23b3d7" stroke-width="2px"/><text text-anchor="middle" pointer-events="none" font-family="sans-serif" dy="1.5625" font-size="25" fill="#2A2C34"/><text text-anchor="middle" pointer-events="none" font-family="sans-serif" dy="1.5625" font-size="25" fill="#2A2C34"/><text text-anchor="middle" pointer-events="none" x="0" y="0" font-size="10px" fill="#2A2C34" font-family="sans-serif"> Nancy</text><text text-anchor="middle" pointer-events="none" x="0" y="10" font-size="10px" fill="#2A2C34" font-family="sans-serif"> Meyers</text></g><g class="node" transform="translate(-28.663164833339586,195.0698009636111)"><circle class="outline" cx="0" cy="0" r="25" fill="#F79767" stroke="#f36924" stroke-width="2px"/><text text-anchor="middle" pointer-events="none" font-family="sans-serif" dy="1.5625" font-size="25" fill="#FFFFFF"/><text text-anchor="middle" pointer-events="none" x="0" y="5" font-size="10px" fill="#FFFFFF" font-family="sans-serif"> Somethi…</text></g></g></svg>