<svg xmlns="http://www.w3.org/2000/svg" width="361.8807067871094" height="231.54708862304688" viewBox="-162.77896118164062 1.4699478149414062 361.8807067871094 231.54708862304688"><title>Neo4j Graph Visualization</title><desc>Created using Neo4j (http://www.neo4j.com/)</desc><g class="layer relationships"><g class="relationship" transform="translate(144.15378204297764 204.01704658844977) rotate(215.61914030546347)"><path class="outline" fill="#A5ABB6" stroke="none" d="M 24.018736134675446,6.953439040707552 L 24.277555179777966,5.987513214418485 A 204.385047745617 204.385047745617 0 0 0 51.59297315116052,11.34428297904725 L 51.46780095680698,12.33641801106694 A 205.385047745617 205.385047745617 0 0 1 24.018736134675446,6.953439040707552 Z M 98.36746568981275,12.85561118911292 L 98.26428793733328,11.8609482555554 A 204.385047745617 204.385047745617 0 0 0 125.69159916292786,7.110196715331764 L 124.97948296420114,4.195940288812127 L 132.61021685792812,5.9343016560560145 L 126.64108742789682,10.995871950691278 L 125.9289712291701,8.081615524171642 A 205.385047745617 205.385047745617 0 0 1 98.36746568981275,12.85561118911292"/><text text-anchor="middle" pointer-events="none" font-size="8px" fill="#000000" x="74.90829888381914" y="16.439211508479815" transform="rotate(180 74.90829888381914 13.439211508479815)" font-family="sans-serif">DIRECTED</text></g><g class="relationship" transform="translate(144.15378204297764 204.01704658844977) rotate(215.61914030546347)"><path class="outline" fill="#A5ABB6" stroke="none" d="M 24.018736134675446,-6.953439040707552 L 24.277555179777966,-5.987513214418485 A 204.385047745617 204.385047745617 0 0 1 51.592973151160486,-11.34428297904725 L 51.467800956806954,-12.33641801106694 A 205.385047745617 205.385047745617 0 0 0 24.018736134675446,-6.953439040707552 Z M 98.36746568981268,-12.855611189112949 L 98.26428793733321,-11.860948255555428 A 204.385047745617 204.385047745617 0 0 1 125.69159916292786,-7.110196715331764 L 124.97948296420114,-4.195940288812127 L 132.61021685792812,-5.9343016560560145 L 126.64108742789682,-10.995871950691278 L 125.9289712291701,-8.081615524171642 A 205.385047745617 205.385047745617 0 0 0 98.36746568981268,-12.855611189112949"/><text text-anchor="middle" pointer-events="none" font-size="8px" fill="#000000" x="74.90829888381909" y="-10.439211508479815" transform="rotate(180 74.90829888381909 -13.439211508479815)" font-family="sans-serif">DIRECTED</text></g><g class="relationship" transform="translate(170.10174633994495 84.36428710811546) rotate(529.5613721734339)"><path class="outline" fill="#A5ABB6" stroke="none" d="M 25 0.5 L 51.75501019045096 0.5 L 51.75501019045096 -0.5 L 25 -0.5 Z M 97.31751019045096 0.5 L 124.07252038090192 0.5 L 124.07252038090192 3.5 L 131.07252038090192 0 L 124.07252038090192 -3.5 L 124.07252038090192 -0.5 L 97.31751019045096 -0.5 Z"/><text text-anchor="middle" pointer-events="none" font-size="8px" fill="#000000" x="74.53626019045096" y="3" transform="rotate(180 74.53626019045096 0)" font-family="sans-serif">ACTED_IN</text></g><g class="relationship" transform="translate(133.7844359625089 30.469948525574978) rotate(504.95832160320714)"><path class="outline" fill="#A5ABB6" stroke="none" d="M 25 0.5 L 45.27560102235543 0.5 L 45.27560102235543 -0.5 L 25 -0.5 Z M 90.83810102235543 0.5 L 111.11370204471086 0.5 L 111.11370204471086 3.5 L 118.11370204471086 0 L 111.11370204471086 -3.5 L 111.11370204471086 -0.5 L 90.83810102235543 -0.5 Z"/><text text-anchor="middle" pointer-events="none" font-size="8px" fill="#000000" x="68.05685102235543" y="3" transform="rotate(180 68.05685102235543 0)" font-family="sans-serif">ACTED_IN</text></g><g class="relationship" transform="translate(-105.76033885616229 54.352001585643734) rotate(385.46989631965914)"><path class="outline" fill="#A5ABB6" stroke="none" d="M 25 0.5 L 46.38637449279726 0.5 L 46.38637449279726 -0.5 L 25 -0.5 Z M 82.15981199279726 0.5 L 103.54618648559452 0.5 L 103.54618648559452 3.5 L 110.54618648559452 0 L 103.54618648559452 -3.5 L 103.54618648559452 -0.5 L 82.15981199279726 -0.5 Z"/><text text-anchor="middle" pointer-events="none" font-size="8px" fill="#000000" x="64.27309324279726" y="3" font-family="sans-serif">WROTE</text></g><g class="relationship" transform="translate(-133.77895585905625 111.2045539606209) rotate(360.5475622472107)"><path class="outline" fill="#A5ABB6" stroke="none" d="M 25 0.5 L 53.81234182288942 0.5 L 53.81234182288942 -0.5 L 25 -0.5 Z M 89.58577932288942 0.5 L 118.39812114577884 0.5 L 118.39812114577884 3.5 L 125.39812114577884 0 L 118.39812114577884 -3.5 L 118.39812114577884 -0.5 L 89.58577932288942 -0.5 Z"/><text text-anchor="middle" pointer-events="none" font-size="8px" fill="#000000" x="71.69906057288942" y="3" font-family="sans-serif">WROTE</text></g></g><g class="layer nodes"><g class="node" transform="translate(16.612297277980034,112.64185144278758)"><circle class="outline" cx="0" cy="0" r="25" fill="#F79767" stroke="#f36924" stroke-width="2px"/><text text-anchor="middle" pointer-events="none" font-family="sans-serif" dy="1.5625" font-size="25" fill="#FFFFFF"/><text text-anchor="middle" pointer-events="none" font-family="sans-serif" dy="1.5625" font-size="25" fill="#FFFFFF"/><text text-anchor="middle" pointer-events="none" font-family="sans-serif" dy="1.5625" font-size="25" fill="#FFFFFF"/><text text-anchor="middle" pointer-events="none" x="0" y="-5" font-size="10px" fill="#FFFFFF" font-family="sans-serif"> Captain</text><text text-anchor="middle" pointer-events="none" x="0" y="5" font-size="10px" fill="#FFFFFF" font-family="sans-serif"> America:</text><text text-anchor="middle" pointer-events="none" x="0" y="15" font-size="10px" fill="#FFFFFF" font-family="sans-serif"> The Fi…</text></g><g class="node" transform="translate(144.15378204297764,204.01704658844977)"><circle class="outline" cx="0" cy="0" r="25" fill="#57C7E3" stroke="#23b3d7" stroke-width="2px"/><text text-anchor="middle" pointer-events="none" font-family="sans-serif" dy="1.5625" font-size="25" fill="#2A2C34"/><text text-anchor="middle" pointer-events="none" font-family="sans-serif" dy="1.5625" font-size="25" fill="#2A2C34"/><text text-anchor="middle" pointer-events="none" x="0" y="0" font-size="10px" fill="#2A2C34" font-family="sans-serif"> Joe</text><text text-anchor="middle" pointer-events="none" x="0" y="10" font-size="10px" fill="#2A2C34" font-family="sans-serif"> Johnston</text></g><g class="node" transform="translate(170.10174633994495,84.36428710811546)"><circle class="outline" cx="0" cy="0" r="25" fill="#57C7E3" stroke="#23b3d7" stroke-width="2px"/><text text-anchor="middle" pointer-events="none" font-family="sans-serif" dy="1.5625" font-size="25" fill="#2A2C34"/><text text-anchor="middle" pointer-events="none" font-family="sans-serif" dy="1.5625" font-size="25" fill="#2A2C34"/><text text-anchor="middle" pointer-events="none" x="0" y="0" font-size="10px" fill="#2A2C34" font-family="sans-serif"> Chris</text><text text-anchor="middle" pointer-events="none" x="0" y="10" font-size="10px" fill="#2A2C34" font-family="sans-serif"> Evans</text></g><g class="node" transform="translate(133.7844359625089,30.469948525574978)"><circle class="outline" cx="0" cy="0" r="25" fill="#57C7E3" stroke="#23b3d7" stroke-width="2px"/><text text-anchor="middle" pointer-events="none" font-family="sans-serif" dy="1.5625" font-size="25" fill="#2A2C34"/><text text-anchor="middle" pointer-events="none" font-family="sans-serif" dy="1.5625" font-size="25" fill="#2A2C34"/><text text-anchor="middle" pointer-events="none" x="0" y="0" font-size="10px" fill="#2A2C34" font-family="sans-serif"> Hayley</text><text text-anchor="middle" pointer-events="none" x="0" y="10" font-size="10px" fill="#2A2C34" font-family="sans-serif"> Atwell</text></g><g class="node" transform="translate(-105.76033885616229,54.352001585643734)"><circle class="outline" cx="0" cy="0" r="25" fill="#57C7E3" stroke="#23b3d7" stroke-width="2px"/><text text-anchor="middle" pointer-events="none" font-family="sans-serif" dy="1.5625" font-size="25" fill="#2A2C34"/><text text-anchor="middle" pointer-events="none" x="0" y="5" font-size="10px" fill="#2A2C34" font-family="sans-serif"> Christop…</text></g><g class="node" transform="translate(-133.77895585905625,111.2045539606209)"><circle class="outline" cx="0" cy="0" r="25" fill="#57C7E3" stroke="#23b3d7" stroke-width="2px"/><text text-anchor="middle" pointer-events="none" font-family="sans-serif" dy="1.5625" font-size="25" fill="#2A2C34"/><text text-anchor="middle" pointer-events="none" font-family="sans-serif" dy="1.5625" font-size="25" fill="#2A2C34"/><text text-anchor="middle" pointer-events="none" x="0" y="0" font-size="10px" fill="#2A2C34" font-family="sans-serif"> Stephen</text><text text-anchor="middle" pointer-events="none" x="0" y="10" font-size="10px" fill="#2A2C34" font-family="sans-serif"> McFeely</text></g></g></svg>