<svg xmlns="http://www.w3.org/2000/svg" width="694.1611328125" height="603.8313598632812" viewBox="-263.21295166015625 -246.85923767089844 694.1611328125 603.8313598632812"><title>Neo4j Graph Visualization</title><desc>Created using Neo4j (http://www.neo4j.com/)</desc><g class="layer relationships"><g class="relationship" transform="translate(220.12142846024142 175.8903468790111) rotate(222.96946635655598)"><path class="outline" fill="#A5ABB6" stroke="none" d="M 25 0.5 L 72.79176505348751 0.5 L 72.79176505348751 -0.5 L 25 -0.5 Z M 107.23707755348751 0.5 L 155.02884260697502 0.5 L 155.02884260697502 3.5 L 162.02884260697502 0 L 155.02884260697502 -3.5 L 155.02884260697502 -0.5 L 107.23707755348751 -0.5 Z"/><text text-anchor="middle" pointer-events="none" font-size="8px" fill="#000000" x="90.01442130348751" y="3" transform="rotate(180 90.01442130348751 0)" font-family="sans-serif">ORIGIN</text></g><g class="relationship" transform="translate(220.12142846024142 175.8903468790111) rotate(455.5090988976748)"><path class="outline" fill="#A5ABB6" stroke="none" d="M 25 0.5 L 43.29803675118066 0.5 L 43.29803675118066 -0.5 L 25 -0.5 Z M 102.48944300118066 0.5 L 120.78747975236132 0.5 L 120.78747975236132 3.5 L 127.78747975236132 0 L 120.78747975236132 -3.5 L 120.78747975236132 -0.5 L 102.48944300118066 -0.5 Z"/><text text-anchor="middle" pointer-events="none" font-size="8px" fill="#000000" x="72.89373987618066" y="3" transform="rotate(180 72.89373987618066 0)" font-family="sans-serif">DESTINATION</text></g><g class="relationship" transform="translate(233.34915055144128 -17.90432480282577) rotate(516.1613111227143)"><path class="outline" fill="#A5ABB6" stroke="none" d="M 25 0.5 L 61.31629225860547 0.5 L 61.31629225860547 -0.5 L 25 -0.5 Z M 95.76160475860547 0.5 L 132.07789701721094 0.5 L 132.07789701721094 3.5 L 139.07789701721094 0 L 132.07789701721094 -3.5 L 132.07789701721094 -0.5 L 95.76160475860547 -0.5 Z"/><text text-anchor="middle" pointer-events="none" font-size="8px" fill="#000000" x="78.53894850860547" y="3" transform="rotate(180 78.53894850860547 0)" font-family="sans-serif">ORIGIN</text></g><g class="relationship" transform="translate(233.34915055144128 -17.90432480282577) rotate(337.7964447828373)"><path class="outline" fill="#A5ABB6" stroke="none" d="M 25 0.5 L 40.6052581597294 0.5 L 40.6052581597294 -0.5 L 25 -0.5 Z M 99.7966644097294 0.5 L 115.4019225694588 0.5 L 115.4019225694588 3.5 L 122.4019225694588 0 L 115.4019225694588 -3.5 L 115.4019225694588 -0.5 L 99.7966644097294 -0.5 Z"/><text text-anchor="middle" pointer-events="none" font-size="8px" fill="#000000" x="70.2009612847294" y="3" font-family="sans-serif">DESTINATION</text></g><g class="relationship" transform="translate(125.4754873940329 195.18737429783442) rotate(253.95727130088022)"><path class="outline" fill="#A5ABB6" stroke="none" d="M 25 0.5 L 55.639958943648125 0.5 L 55.639958943648125 -0.5 L 25 -0.5 Z M 90.08527144364813 0.5 L 120.72523038729625 0.5 L 120.72523038729625 3.5 L 127.72523038729625 0 L 120.72523038729625 -3.5 L 120.72523038729625 -0.5 L 90.08527144364813 -0.5 Z"/><text text-anchor="middle" pointer-events="none" font-size="8px" fill="#000000" x="72.86261519364813" y="3" transform="rotate(180 72.86261519364813 0)" font-family="sans-serif">ORIGIN</text></g><g class="relationship" transform="translate(125.4754873940329 195.18737429783442) rotate(418.9389630321085)"><path class="outline" fill="#A5ABB6" stroke="none" d="M 25 0.5 L 44.409496928149196 0.5 L 44.409496928149196 -0.5 L 25 -0.5 Z M 103.6009031781492 0.5 L 123.01040010629839 0.5 L 123.01040010629839 3.5 L 130.0104001062984 0 L 123.01040010629839 -3.5 L 123.01040010629839 -0.5 L 103.6009031781492 -0.5 Z"/><text text-anchor="middle" pointer-events="none" font-size="8px" fill="#000000" x="74.0052000531492" y="3" font-family="sans-serif">DESTINATION</text></g><g class="relationship" transform="translate(126.31039839375768 -76.84157566874045) rotate(468.9646672936884)"><path class="outline" fill="#A5ABB6" stroke="none" d="M 25 0.5 L 45.49756823565741 0.5 L 45.49756823565741 -0.5 L 25 -0.5 Z M 79.94288073565741 0.5 L 100.44044897131482 0.5 L 100.44044897131482 3.5 L 107.44044897131482 0 L 100.44044897131482 -3.5 L 100.44044897131482 -0.5 L 79.94288073565741 -0.5 Z"/><text text-anchor="middle" pointer-events="none" font-size="8px" fill="#000000" x="62.72022448565741" y="3" transform="rotate(180 62.72022448565741 0)" font-family="sans-serif">ORIGIN</text></g><g class="relationship" transform="translate(126.31039839375768 -76.84157566874045) rotate(240.7914693579413)"><path class="outline" fill="#A5ABB6" stroke="none" d="M 25 0.5 L 47.68435685377304 0.5 L 47.68435685377304 -0.5 L 25 -0.5 Z M 106.87576310377304 0.5 L 129.56011995754608 0.5 L 129.56011995754608 3.5 L 136.56011995754608 0 L 129.56011995754608 -3.5 L 129.56011995754608 -0.5 L 106.87576310377304 -0.5 Z"/><text text-anchor="middle" pointer-events="none" font-size="8px" fill="#000000" x="77.28005997877304" y="3" transform="rotate(180 77.28005997877304 0)" font-family="sans-serif">DESTINATION</text></g><g class="relationship" transform="translate(8.115492249513622 -62.42174942526142) rotate(415.85922699127946)"><path class="outline" fill="#A5ABB6" stroke="none" d="M 25 0.5 L 46.23206489969495 0.5 L 46.23206489969495 -0.5 L 25 -0.5 Z M 80.67737739969495 0.5 L 101.9094422993899 0.5 L 101.9094422993899 3.5 L 108.9094422993899 0 L 101.9094422993899 -3.5 L 101.9094422993899 -0.5 L 80.67737739969495 -0.5 Z"/><text text-anchor="middle" pointer-events="none" font-size="8px" fill="#000000" x="63.45472114969495" y="3" font-family="sans-serif">ORIGIN</text></g><g class="relationship" transform="translate(8.115492249513622 -62.42174942526142) rotate(284.2081456328026)"><path class="outline" fill="#A5ABB6" stroke="none" d="M 25 0.5 L 47.075437294361706 0.5 L 47.075437294361706 -0.5 L 25 -0.5 Z M 106.2668435443617 0.5 L 128.3422808387234 0.5 L 128.3422808387234 3.5 L 135.3422808387234 0 L 128.3422808387234 -3.5 L 128.3422808387234 -0.5 L 106.2668435443617 -0.5 Z"/><text text-anchor="middle" pointer-events="none" font-size="8px" fill="#000000" x="76.6711404193617" y="3" font-family="sans-serif">DESTINATION</text></g><g class="relationship" transform="translate(66.31757058383106 -76.86207666890769) rotate(442.2936080742529)"><path class="outline" fill="#A5ABB6" stroke="none" d="M 25 0.5 L 42.48419838984209 0.5 L 42.48419838984209 -0.5 L 25 -0.5 Z M 76.92951088984209 0.5 L 94.41370927968418 0.5 L 94.41370927968418 3.5 L 101.41370927968418 0 L 94.41370927968418 -3.5 L 94.41370927968418 -0.5 L 76.92951088984209 -0.5 Z"/><text text-anchor="middle" pointer-events="none" font-size="8px" fill="#000000" x="59.70685463984209" y="3" font-family="sans-serif">ORIGIN</text></g><g class="relationship" transform="translate(66.31757058383106 -76.86207666890769) rotate(262.3865070913713)"><path class="outline" fill="#A5ABB6" stroke="none" d="M 25 0.5 L 38.02989293836232 0.5 L 38.02989293836232 -0.5 L 25 -0.5 Z M 97.22129918836232 0.5 L 110.25119212672465 0.5 L 110.25119212672465 3.5 L 117.25119212672465 0 L 110.25119212672465 -3.5 L 110.25119212672465 -0.5 L 97.22129918836232 -0.5 Z"/><text text-anchor="middle" pointer-events="none" font-size="8px" fill="#000000" x="67.62559606336232" y="3" transform="rotate(180 67.62559606336232 0)" font-family="sans-serif">DESTINATION</text></g><g class="relationship" transform="translate(96.29113207182036 -128.67714014144997) rotate(454.20561116397784)"><path class="outline" fill="#A5ABB6" stroke="none" d="M 25 0.5 L 68.05992622694625 0.5 L 68.05992622694625 -0.5 L 25 -0.5 Z M 102.50523872694625 0.5 L 145.5651649538925 0.5 L 145.5651649538925 3.5 L 152.5651649538925 0 L 145.5651649538925 -3.5 L 145.5651649538925 -0.5 L 102.50523872694625 -0.5 Z"/><text text-anchor="middle" pointer-events="none" font-size="8px" fill="#000000" x="85.28258247694625" y="3" transform="rotate(180 85.28258247694625 0)" font-family="sans-serif">ORIGIN</text></g><g class="relationship" transform="translate(96.29113207182036 -128.67714014144997) rotate(241.30265694664718)"><path class="outline" fill="#A5ABB6" stroke="none" d="M 25 0.5 L 25.667247783201816 0.5 L 25.667247783201816 -0.5 L 25 -0.5 Z M 69.00318528320182 0.5 L 69.67043306640363 0.5 L 69.67043306640363 3.5 L 76.67043306640363 0 L 69.67043306640363 -3.5 L 69.67043306640363 -0.5 L 69.00318528320182 -0.5 Z"/><text text-anchor="middle" pointer-events="none" font-size="8px" fill="#000000" x="47.335216533201816" y="3" transform="rotate(180 47.335216533201816 0)" font-family="sans-serif">DESTIN…</text></g><g class="relationship" transform="translate(176.497122433833 81.36631333769309) rotate(199.46869845731544)"><path class="outline" fill="#A5ABB6" stroke="none" d="M 25 0.5 L 28.718126952286283 0.5 L 28.718126952286283 -0.5 L 25 -0.5 Z M 63.16343945228628 0.5 L 66.88156640457257 0.5 L 66.88156640457257 3.5 L 73.88156640457257 0 L 66.88156640457257 -3.5 L 66.88156640457257 -0.5 L 63.16343945228628 -0.5 Z"/><text text-anchor="middle" pointer-events="none" font-size="8px" fill="#000000" x="45.94078320228628" y="3" transform="rotate(180 45.94078320228628 0)" font-family="sans-serif">ORIGIN</text></g><g class="relationship" transform="translate(176.497122433833 81.36631333769309) rotate(510.05882463024915)"><path class="outline" fill="#A5ABB6" stroke="none" d="M 25 0.5 L 36.88355008326934 0.5 L 36.88355008326934 -0.5 L 25 -0.5 Z M 96.07495633326934 0.5 L 107.95850641653868 0.5 L 107.95850641653868 3.5 L 114.95850641653868 0 L 107.95850641653868 -3.5 L 107.95850641653868 -0.5 L 96.07495633326934 -0.5 Z"/><text text-anchor="middle" pointer-events="none" font-size="8px" fill="#000000" x="66.47925320826934" y="3" transform="rotate(180 66.47925320826934 0)" font-family="sans-serif">DESTINATION</text></g><g class="relationship" transform="translate(159.58594860190442 138.86402338141846) rotate(229.84546522941736)"><path class="outline" fill="#A5ABB6" stroke="none" d="M 25 0.5 L 38.451218547791974 0.5 L 38.451218547791974 -0.5 L 25 -0.5 Z M 72.89653104779197 0.5 L 86.34774959558395 0.5 L 86.34774959558395 3.5 L 93.34774959558395 0 L 86.34774959558395 -3.5 L 86.34774959558395 -0.5 L 72.89653104779197 -0.5 Z"/><text text-anchor="middle" pointer-events="none" font-size="8px" fill="#000000" x="55.673874797791974" y="3" transform="rotate(180 55.673874797791974 0)" font-family="sans-serif">ORIGIN</text></g><g class="relationship" transform="translate(159.58594860190442 138.86402338141846) rotate(533.2476881079888)"><path class="outline" fill="#A5ABB6" stroke="none" d="M 25 0.5 L 27.380638872703322 0.5 L 27.380638872703322 -0.5 L 25 -0.5 Z M 70.71657637270332 0.5 L 73.09721524540664 0.5 L 73.09721524540664 3.5 L 80.09721524540664 0 L 73.09721524540664 -3.5 L 73.09721524540664 -0.5 L 70.71657637270332 -0.5 Z"/><text text-anchor="middle" pointer-events="none" font-size="8px" fill="#000000" x="49.04860762270332" y="3" transform="rotate(180 49.04860762270332 0)" font-family="sans-serif">DESTIN…</text></g><g class="relationship" transform="translate(156.19636983901506 -128.6354921148637) rotate(472.38735430866524)"><path class="outline" fill="#A5ABB6" stroke="none" d="M 25 0.5 L 75.01583636470559 0.5 L 75.01583636470559 -0.5 L 25 -0.5 Z M 109.46114886470559 0.5 L 159.47698522941118 0.5 L 159.47698522941118 3.5 L 166.47698522941118 0 L 159.47698522941118 -3.5 L 159.47698522941118 -0.5 L 109.46114886470559 -0.5 Z"/><text text-anchor="middle" pointer-events="none" font-size="8px" fill="#000000" x="92.23849261470559" y="3" transform="rotate(180 92.23849261470559 0)" font-family="sans-serif">ORIGIN</text></g><g class="relationship" transform="translate(156.19636983901506 -128.6354921148637) rotate(219.37340069100185)"><path class="outline" fill="#A5ABB6" stroke="none" d="M 25 0.5 L 37.228793874677095 0.5 L 37.228793874677095 -0.5 L 25 -0.5 Z M 96.4202001246771 0.5 L 108.64899399935419 0.5 L 108.64899399935419 3.5 L 115.64899399935419 0 L 108.64899399935419 -3.5 L 108.64899399935419 -0.5 L 96.4202001246771 -0.5 Z"/><text text-anchor="middle" pointer-events="none" font-size="8px" fill="#000000" x="66.8244969996771" y="3" transform="rotate(180 66.8244969996771 0)" font-family="sans-serif">DESTINATION</text></g><g class="relationship" transform="translate(-0.41162859275365077 208.46118107573048) rotate(297.60227021976914)"><path class="outline" fill="#A5ABB6" stroke="none" d="M 25 0.5 L 69.5808616335064 0.5 L 69.5808616335064 -0.5 L 25 -0.5 Z M 104.0261741335064 0.5 L 148.6070357670128 0.5 L 148.6070357670128 3.5 L 155.6070357670128 0 L 148.6070357670128 -3.5 L 148.6070357670128 -0.5 L 104.0261741335064 -0.5 Z"/><text text-anchor="middle" pointer-events="none" font-size="8px" fill="#000000" x="86.8035178835064" y="3" font-family="sans-serif">ORIGIN</text></g><g class="relationship" transform="translate(-0.41162859275365077 208.46118107573048) rotate(496.16358583682467)"><path class="outline" fill="#A5ABB6" stroke="none" d="M 25 0.5 L 37.03325493998537 0.5 L 37.03325493998537 -0.5 L 25 -0.5 Z M 96.22466118998537 0.5 L 108.25791612997074 0.5 L 108.25791612997074 3.5 L 115.25791612997074 0 L 108.25791612997074 -3.5 L 108.25791612997074 -0.5 L 96.22466118998537 -0.5 Z"/><text text-anchor="middle" pointer-events="none" font-size="8px" fill="#000000" x="66.62895806498537" y="3" transform="rotate(180 66.62895806498537 0)" font-family="sans-serif">DESTINATION</text></g><g class="relationship" transform="translate(24.745850341910213 -119.92082899550968) rotate(430.8290177981519)"><path class="outline" fill="#A5ABB6" stroke="none" d="M 25 0.5 L 68.38432920384106 0.5 L 68.38432920384106 -0.5 L 25 -0.5 Z M 102.82964170384106 0.5 L 146.21397090768212 0.5 L 146.21397090768212 3.5 L 153.21397090768212 0 L 146.21397090768212 -3.5 L 146.21397090768212 -0.5 L 102.82964170384106 -0.5 Z"/><text text-anchor="middle" pointer-events="none" font-size="8px" fill="#000000" x="85.60698545384106" y="3" font-family="sans-serif">ORIGIN</text></g><g class="relationship" transform="translate(24.745850341910213 -119.92082899550968) rotate(283.06331432656276)"><path class="outline" fill="#A5ABB6" stroke="none" d="M 25 0.5 L 25.102180762806064 0.5 L 25.102180762806064 -0.5 L 25 -0.5 Z M 68.43811826280606 0.5 L 68.54029902561213 0.5 L 68.54029902561213 3.5 L 75.54029902561213 0 L 68.54029902561213 -3.5 L 68.54029902561213 -0.5 L 68.43811826280606 -0.5 Z"/><text text-anchor="middle" pointer-events="none" font-size="8px" fill="#000000" x="46.770149512806064" y="3" font-family="sans-serif">DESTIN…</text></g><g class="relationship" transform="translate(-89.40307132865425 31.45225778503352) rotate(365.608863605252)"><path class="outline" fill="#A5ABB6" stroke="none" d="M 25 0.5 L 66.02883860281175 0.5 L 66.02883860281175 -0.5 L 25 -0.5 Z M 100.47415110281175 0.5 L 141.5029897056235 0.5 L 141.5029897056235 3.5 L 148.5029897056235 0 L 141.5029897056235 -3.5 L 141.5029897056235 -0.5 L 100.47415110281175 -0.5 Z"/><text text-anchor="middle" pointer-events="none" font-size="8px" fill="#000000" x="83.25149485281175" y="3" font-family="sans-serif">ORIGIN</text></g><g class="relationship" transform="translate(-89.40307132865425 31.45225778503352) rotate(534.9214786103238)"><path class="outline" fill="#A5ABB6" stroke="none" d="M 25 0.5 L 39.59458664631268 0.5 L 39.59458664631268 -0.5 L 25 -0.5 Z M 98.78599289631268 0.5 L 113.38057954262536 0.5 L 113.38057954262536 3.5 L 120.38057954262536 0 L 113.38057954262536 -3.5 L 113.38057954262536 -0.5 L 98.78599289631268 -0.5 Z"/><text text-anchor="middle" pointer-events="none" font-size="8px" fill="#000000" x="69.19028977131268" y="3" transform="rotate(180 69.19028977131268 0)" font-family="sans-serif">DESTINATION</text></g><g class="relationship" transform="translate(-33.40099903028044 -105.47925900614057) rotate(412.832610194129)"><path class="outline" fill="#A5ABB6" stroke="none" d="M 25 0.5 L 75.83537767671666 0.5 L 75.83537767671666 -0.5 L 25 -0.5 Z M 110.28069017671666 0.5 L 161.11606785343332 0.5 L 161.11606785343332 3.5 L 168.11606785343332 0 L 161.11606785343332 -3.5 L 161.11606785343332 -0.5 L 110.28069017671666 -0.5 Z"/><text text-anchor="middle" pointer-events="none" font-size="8px" fill="#000000" x="93.05803392671666" y="3" font-family="sans-serif">ORIGIN</text></g><g class="relationship" transform="translate(-33.40099903028044 -105.47925900614057) rotate(305.73983374002)"><path class="outline" fill="#A5ABB6" stroke="none" d="M 25 0.5 L 36.13127232948942 0.5 L 36.13127232948942 -0.5 L 25 -0.5 Z M 95.32267857948942 0.5 L 106.45395090897884 0.5 L 106.45395090897884 3.5 L 113.45395090897884 0 L 106.45395090897884 -3.5 L 106.45395090897884 -0.5 L 95.32267857948942 -0.5 Z"/><text text-anchor="middle" pointer-events="none" font-size="8px" fill="#000000" x="65.72697545448942" y="3" font-family="sans-serif">DESTINATION</text></g><g class="relationship" transform="translate(-26.399658630472352 60.05316969023885) rotate(353.9397506190402)"><path class="outline" fill="#A5ABB6" stroke="none" d="M 25 0.5 L 34.41995988134892 0.5 L 34.41995988134892 -0.5 L 25 -0.5 Z M 68.86527238134892 0.5 L 78.28523226269785 0.5 L 78.28523226269785 3.5 L 85.28523226269785 0 L 78.28523226269785 -3.5 L 78.28523226269785 -0.5 L 68.86527238134892 -0.5 Z"/><text text-anchor="middle" pointer-events="none" font-size="8px" fill="#000000" x="51.64261613134892" y="3" font-family="sans-serif">ORIGIN</text></g><g class="relationship" transform="translate(-26.399658630472352 60.05316969023885) rotate(408.1637500013509)"><path class="outline" fill="#A5ABB6" stroke="none" d="M 25 0.5 L 28.086372322415407 0.5 L 28.086372322415407 -0.5 L 25 -0.5 Z M 87.2777785724154 0.5 L 90.36415089483081 0.5 L 90.36415089483081 3.5 L 97.36415089483081 0 L 90.36415089483081 -3.5 L 90.36415089483081 -0.5 L 87.2777785724154 -0.5 Z"/><text text-anchor="middle" pointer-events="none" font-size="8px" fill="#000000" x="57.68207544741541" y="3" font-family="sans-serif">DESTINATION</text></g><g class="relationship" transform="translate(96.82094690878408 247.70286477538218) rotate(266.1099361985851)"><path class="outline" fill="#A5ABB6" stroke="none" d="M 25 0.5 L 79.15393837369126 0.5 L 79.15393837369126 -0.5 L 25 -0.5 Z M 113.59925087369126 0.5 L 167.75318924738252 0.5 L 167.75318924738252 3.5 L 174.75318924738252 0 L 167.75318924738252 -3.5 L 167.75318924738252 -0.5 L 113.59925087369126 -0.5 Z"/><text text-anchor="middle" pointer-events="none" font-size="8px" fill="#000000" x="96.37659462369126" y="3" transform="rotate(180 96.37659462369126 0)" font-family="sans-serif">ORIGIN</text></g><g class="relationship" transform="translate(96.82094690878408 247.70286477538218) rotate(396.4609767278514)"><path class="outline" fill="#A5ABB6" stroke="none" d="M 25 0.5 L 34.43970581024283 0.5 L 34.43970581024283 -0.5 L 25 -0.5 Z M 93.63111206024283 0.5 L 103.07081787048566 0.5 L 103.07081787048566 3.5 L 110.07081787048566 0 L 103.07081787048566 -3.5 L 103.07081787048566 -0.5 L 93.63111206024283 -0.5 Z"/><text text-anchor="middle" pointer-events="none" font-size="8px" fill="#000000" x="64.03540893524283" y="3" font-family="sans-serif">DESTINATION</text></g><g class="relationship" transform="translate(179.80956563723373 220.19531613332788) rotate(240.6647934294706)"><path class="outline" fill="#A5ABB6" stroke="none" d="M 25 0.5 L 77.80432734659243 0.5 L 77.80432734659243 -0.5 L 25 -0.5 Z M 112.24963984659243 0.5 L 165.05396719318486 0.5 L 165.05396719318486 3.5 L 172.05396719318486 0 L 165.05396719318486 -3.5 L 165.05396719318486 -0.5 L 112.24963984659243 -0.5 Z"/><text text-anchor="middle" pointer-events="none" font-size="8px" fill="#000000" x="95.02698359659243" y="3" transform="rotate(180 95.02698359659243 0)" font-family="sans-serif">ORIGIN</text></g><g class="relationship" transform="translate(179.80956563723373 220.19531613332788) rotate(436.61628551490446)"><path class="outline" fill="#A5ABB6" stroke="none" d="M 25 0.5 L 25.408387599692524 0.5 L 25.408387599692524 -0.5 L 25 -0.5 Z M 78.37713759969253 0.5 L 78.78552519938505 0.5 L 78.78552519938505 3.5 L 85.78552519938505 0 L 78.78552519938505 -3.5 L 78.78552519938505 -0.5 L 78.37713759969253 -0.5 Z"/><text text-anchor="middle" pointer-events="none" font-size="8px" fill="#000000" x="51.892762599692524" y="3" font-family="sans-serif">DESTINAT…</text></g><g class="relationship" transform="translate(255.43024452960822 64.12644963943737) rotate(185.21606588509115)"><path class="outline" fill="#A5ABB6" stroke="none" d="M 25 0.5 L 65.71579394719609 0.5 L 65.71579394719609 -0.5 L 25 -0.5 Z M 100.16110644719609 0.5 L 140.87690039439218 0.5 L 140.87690039439218 3.5 L 147.87690039439218 0 L 140.87690039439218 -3.5 L 140.87690039439218 -0.5 L 100.16110644719609 -0.5 Z"/><text text-anchor="middle" pointer-events="none" font-size="8px" fill="#000000" x="82.93845019719609" y="3" transform="rotate(180 82.93845019719609 0)" font-family="sans-serif">ORIGIN</text></g><g class="relationship" transform="translate(255.43024452960822 64.12644963943737) rotate(374.7213908091722)"><path class="outline" fill="#A5ABB6" stroke="none" d="M 25 0.5 L 42.64977833870701 0.5 L 42.64977833870701 -0.5 L 25 -0.5 Z M 101.84118458870701 0.5 L 119.49096292741402 0.5 L 119.49096292741402 3.5 L 126.49096292741402 0 L 119.49096292741402 -3.5 L 119.49096292741402 -0.5 L 101.84118458870701 -0.5 Z"/><text text-anchor="middle" pointer-events="none" font-size="8px" fill="#000000" x="72.24548146370701" y="3" font-family="sans-serif">DESTINATION</text></g><g class="relationship" transform="translate(-51.6442226686893 177.2764139409859) rotate(316.31322893904417)"><path class="outline" fill="#A5ABB6" stroke="none" d="M 25 0.5 L 72.5621512087113 0.5 L 72.5621512087113 -0.5 L 25 -0.5 Z M 107.0074637087113 0.5 L 154.5696149174226 0.5 L 154.5696149174226 3.5 L 161.5696149174226 0 L 154.5696149174226 -3.5 L 154.5696149174226 -0.5 L 107.0074637087113 -0.5 Z"/><text text-anchor="middle" pointer-events="none" font-size="8px" fill="#000000" x="89.7848074587113" y="3" font-family="sans-serif">ORIGIN</text></g><g class="relationship" transform="translate(-51.6442226686893 177.2764139409859) rotate(471.2633328781784)"><path class="outline" fill="#A5ABB6" stroke="none" d="M 25 0.5 L 35.75525100729489 0.5 L 35.75525100729489 -0.5 L 25 -0.5 Z M 94.94665725729489 0.5 L 105.70190826458978 0.5 L 105.70190826458978 3.5 L 112.70190826458978 0 L 105.70190826458978 -3.5 L 105.70190826458978 -0.5 L 94.94665725729489 -0.5 Z"/><text text-anchor="middle" pointer-events="none" font-size="8px" fill="#000000" x="65.35095413229489" y="3" transform="rotate(180 65.35095413229489 0)" font-family="sans-serif">DESTINATION</text></g><g class="relationship" transform="translate(-40.434229445964185 118.30418640412313) rotate(330.5329082043771)"><path class="outline" fill="#A5ABB6" stroke="none" d="M 25 0.5 L 50.31916154904084 0.5 L 50.31916154904084 -0.5 L 25 -0.5 Z M 84.76447404904084 0.5 L 110.08363559808168 0.5 L 110.08363559808168 3.5 L 117.08363559808168 0 L 110.08363559808168 -3.5 L 110.08363559808168 -0.5 L 84.76447404904084 -0.5 Z"/><text text-anchor="middle" pointer-events="none" font-size="8px" fill="#000000" x="67.54181779904084" y="3" font-family="sans-serif">ORIGIN</text></g><g class="relationship" transform="translate(-40.434229445964185 118.30418640412313) rotate(378.989982508426)"><path class="outline" fill="#A5ABB6" stroke="none" d="M 25 0.5 L 25.410725879721667 0.5 L 25.410725879721667 -0.5 L 25 -0.5 Z M 68.74666337972167 0.5 L 69.15738925944333 0.5 L 69.15738925944333 3.5 L 76.15738925944333 0 L 69.15738925944333 -3.5 L 69.15738925944333 -0.5 L 68.74666337972167 -0.5 Z"/><text text-anchor="middle" pointer-events="none" font-size="8px" fill="#000000" x="47.07869462972167" y="3" font-family="sans-serif">DESTIN…</text></g></g><g class="layer nodes"><g class="node" transform="translate(83.26923674019015,48.40989509002913)"><circle class="outline" cx="0" cy="0" r="25" fill="#ECB5C9" stroke="#da7298" stroke-width="2px"/><text text-anchor="middle" pointer-events="none" font-family="sans-serif" dy="1.5625" font-size="25" fill="#2A2C34"/><text text-anchor="middle" pointer-events="none" x="0" y="5" font-size="10px" fill="#2A2C34" font-family="sans-serif"> LAX</text></g><g class="node" transform="translate(205.45324585078075,327.9720959089777)"><circle class="outline" cx="0" cy="0" r="25" fill="#ECB5C9" stroke="#da7298" stroke-width="2px"/><text text-anchor="middle" pointer-events="none" font-family="sans-serif" dy="1.5625" font-size="25" fill="#2A2C34"/><text text-anchor="middle" pointer-events="none" x="0" y="5" font-size="10px" fill="#2A2C34" font-family="sans-serif"> FAT</text></g><g class="node" transform="translate(369.82079868542013,-73.60725141147171)"><circle class="outline" cx="0" cy="0" r="25" fill="#ECB5C9" stroke="#da7298" stroke-width="2px"/><text text-anchor="middle" pointer-events="none" font-family="sans-serif" dy="1.5625" font-size="25" fill="#2A2C34"/><text text-anchor="middle" pointer-events="none" x="0" y="5" font-size="10px" fill="#2A2C34" font-family="sans-serif"> IAH</text></g><g class="node" transform="translate(47.47073665934585,-217.85923448599706)"><circle class="outline" cx="0" cy="0" r="25" fill="#ECB5C9" stroke="#da7298" stroke-width="2px"/><text text-anchor="middle" pointer-events="none" font-family="sans-serif" dy="1.5625" font-size="25" fill="#2A2C34"/><text text-anchor="middle" pointer-events="none" x="0" y="5" font-size="10px" fill="#2A2C34" font-family="sans-serif"> ABQ</text></g><g class="node" transform="translate(55.21771775205219,151.2210878229145)"><circle class="outline" cx="0" cy="0" r="25" fill="#ECB5C9" stroke="#da7298" stroke-width="2px"/><text text-anchor="middle" pointer-events="none" font-family="sans-serif" dy="1.5625" font-size="25" fill="#2A2C34"/><text text-anchor="middle" pointer-events="none" x="0" y="5" font-size="10px" fill="#2A2C34" font-family="sans-serif"> SMF</text></g><g class="node" transform="translate(-101.58249569940324,305.6040587663288)"><circle class="outline" cx="0" cy="0" r="25" fill="#ECB5C9" stroke="#da7298" stroke-width="2px"/><text text-anchor="middle" pointer-events="none" font-family="sans-serif" dy="1.5625" font-size="25" fill="#2A2C34"/><text text-anchor="middle" pointer-events="none" x="0" y="5" font-size="10px" fill="#2A2C34" font-family="sans-serif"> TUS</text></g><g class="node" transform="translate(-234.2129331575331,44.32147785660874)"><circle class="outline" cx="0" cy="0" r="25" fill="#ECB5C9" stroke="#da7298" stroke-width="2px"/><text text-anchor="middle" pointer-events="none" font-family="sans-serif" dy="1.5625" font-size="25" fill="#2A2C34"/><text text-anchor="middle" pointer-events="none" x="0" y="5" font-size="10px" fill="#2A2C34" font-family="sans-serif"> BOS</text></g><g class="node" transform="translate(401.94820564315444,102.62318871957883)"><circle class="outline" cx="0" cy="0" r="25" fill="#ECB5C9" stroke="#da7298" stroke-width="2px"/><text text-anchor="middle" pointer-events="none" font-family="sans-serif" dy="1.5625" font-size="25" fill="#2A2C34"/><text text-anchor="middle" pointer-events="none" x="0" y="5" font-size="10px" fill="#2A2C34" font-family="sans-serif"> LAS</text></g><g class="node" transform="translate(220.12142846024142,175.8903468790111)"><circle class="outline" cx="0" cy="0" r="25" fill="#4C8EDA" stroke="#2870c2" stroke-width="2px"/><text text-anchor="middle" pointer-events="none" font-family="sans-serif" dy="1.5625" font-size="25" fill="#FFFFFF"/><text text-anchor="middle" pointer-events="none" x="0" y="5" font-size="10px" fill="#FFFFFF" font-family="sans-serif"> 11/4/2015</text></g><g class="node" transform="translate(233.34915055144128,-17.90432480282577)"><circle class="outline" cx="0" cy="0" r="25" fill="#4C8EDA" stroke="#2870c2" stroke-width="2px"/><text text-anchor="middle" pointer-events="none" font-family="sans-serif" dy="1.5625" font-size="25" fill="#FFFFFF"/><text text-anchor="middle" pointer-events="none" x="0" y="5" font-size="10px" fill="#FFFFFF" font-family="sans-serif"> 11/30/20…</text></g><g class="node" transform="translate(125.4754873940329,195.18737429783442)"><circle class="outline" cx="0" cy="0" r="25" fill="#4C8EDA" stroke="#2870c2" stroke-width="2px"/><text text-anchor="middle" pointer-events="none" font-family="sans-serif" dy="1.5625" font-size="25" fill="#FFFFFF"/><text text-anchor="middle" pointer-events="none" x="0" y="5" font-size="10px" fill="#FFFFFF" font-family="sans-serif"> 11/2/2015</text></g><g class="node" transform="translate(126.31039839375768,-76.84157566874045)"><circle class="outline" cx="0" cy="0" r="25" fill="#4C8EDA" stroke="#2870c2" stroke-width="2px"/><text text-anchor="middle" pointer-events="none" font-family="sans-serif" dy="1.5625" font-size="25" fill="#FFFFFF"/><text text-anchor="middle" pointer-events="none" x="0" y="5" font-size="10px" fill="#FFFFFF" font-family="sans-serif"> 11/1/2015</text></g><g class="node" transform="translate(8.115492249513622,-62.42174942526142)"><circle class="outline" cx="0" cy="0" r="25" fill="#4C8EDA" stroke="#2870c2" stroke-width="2px"/><text text-anchor="middle" pointer-events="none" font-family="sans-serif" dy="1.5625" font-size="25" fill="#FFFFFF"/><text text-anchor="middle" pointer-events="none" x="0" y="5" font-size="10px" fill="#FFFFFF" font-family="sans-serif"> 11/3/2015</text></g><g class="node" transform="translate(66.31757058383106,-76.86207666890769)"><circle class="outline" cx="0" cy="0" r="25" fill="#4C8EDA" stroke="#2870c2" stroke-width="2px"/><text text-anchor="middle" pointer-events="none" font-family="sans-serif" dy="1.5625" font-size="25" fill="#FFFFFF"/><text text-anchor="middle" pointer-events="none" x="0" y="5" font-size="10px" fill="#FFFFFF" font-family="sans-serif"> 11/1/2015</text></g><g class="node" transform="translate(96.29113207182036,-128.67714014144997)"><circle class="outline" cx="0" cy="0" r="25" fill="#4C8EDA" stroke="#2870c2" stroke-width="2px"/><text text-anchor="middle" pointer-events="none" font-family="sans-serif" dy="1.5625" font-size="25" fill="#FFFFFF"/><text text-anchor="middle" pointer-events="none" x="0" y="5" font-size="10px" fill="#FFFFFF" font-family="sans-serif"> 11/2/2015</text></g><g class="node" transform="translate(176.497122433833,81.36631333769309)"><circle class="outline" cx="0" cy="0" r="25" fill="#4C8EDA" stroke="#2870c2" stroke-width="2px"/><text text-anchor="middle" pointer-events="none" font-family="sans-serif" dy="1.5625" font-size="25" fill="#FFFFFF"/><text text-anchor="middle" pointer-events="none" x="0" y="5" font-size="10px" fill="#FFFFFF" font-family="sans-serif"> 11/3/2015</text></g><g class="node" transform="translate(159.58594860190442,138.86402338141846)"><circle class="outline" cx="0" cy="0" r="25" fill="#4C8EDA" stroke="#2870c2" stroke-width="2px"/><text text-anchor="middle" pointer-events="none" font-family="sans-serif" dy="1.5625" font-size="25" fill="#FFFFFF"/><text text-anchor="middle" pointer-events="none" x="0" y="5" font-size="10px" fill="#FFFFFF" font-family="sans-serif"> 11/4/2015</text></g><g class="node" transform="translate(156.19636983901506,-128.6354921148637)"><circle class="outline" cx="0" cy="0" r="25" fill="#4C8EDA" stroke="#2870c2" stroke-width="2px"/><text text-anchor="middle" pointer-events="none" font-family="sans-serif" dy="1.5625" font-size="25" fill="#FFFFFF"/><text text-anchor="middle" pointer-events="none" x="0" y="5" font-size="10px" fill="#FFFFFF" font-family="sans-serif"> 11/4/2015</text></g><g class="node" transform="translate(-0.41162859275365077,208.46118107573048)"><circle class="outline" cx="0" cy="0" r="25" fill="#4C8EDA" stroke="#2870c2" stroke-width="2px"/><text text-anchor="middle" pointer-events="none" font-family="sans-serif" dy="1.5625" font-size="25" fill="#FFFFFF"/><text text-anchor="middle" pointer-events="none" x="0" y="5" font-size="10px" fill="#FFFFFF" font-family="sans-serif"> 11/2/2015</text></g><g class="node" transform="translate(24.745850341910213,-119.92082899550968)"><circle class="outline" cx="0" cy="0" r="25" fill="#4C8EDA" stroke="#2870c2" stroke-width="2px"/><text text-anchor="middle" pointer-events="none" font-family="sans-serif" dy="1.5625" font-size="25" fill="#FFFFFF"/><text text-anchor="middle" pointer-events="none" x="0" y="5" font-size="10px" fill="#FFFFFF" font-family="sans-serif"> 11/2/2015</text></g><g class="node" transform="translate(-89.40307132865425,31.45225778503352)"><circle class="outline" cx="0" cy="0" r="25" fill="#4C8EDA" stroke="#2870c2" stroke-width="2px"/><text text-anchor="middle" pointer-events="none" font-family="sans-serif" dy="1.5625" font-size="25" fill="#FFFFFF"/><text text-anchor="middle" pointer-events="none" x="0" y="5" font-size="10px" fill="#FFFFFF" font-family="sans-serif"> 11/29/20…</text></g><g class="node" transform="translate(-33.40099903028044,-105.47925900614057)"><circle class="outline" cx="0" cy="0" r="25" fill="#4C8EDA" stroke="#2870c2" stroke-width="2px"/><text text-anchor="middle" pointer-events="none" font-family="sans-serif" dy="1.5625" font-size="25" fill="#FFFFFF"/><text text-anchor="middle" pointer-events="none" x="0" y="5" font-size="10px" fill="#FFFFFF" font-family="sans-serif"> 11/3/2015</text></g><g class="node" transform="translate(-26.399658630472352,60.05316969023885)"><circle class="outline" cx="0" cy="0" r="25" fill="#4C8EDA" stroke="#2870c2" stroke-width="2px"/><text text-anchor="middle" pointer-events="none" font-family="sans-serif" dy="1.5625" font-size="25" fill="#FFFFFF"/><text text-anchor="middle" pointer-events="none" x="0" y="5" font-size="10px" fill="#FFFFFF" font-family="sans-serif"> 11/2/2015</text></g><g class="node" transform="translate(96.82094690878408,247.70286477538218)"><circle class="outline" cx="0" cy="0" r="25" fill="#4C8EDA" stroke="#2870c2" stroke-width="2px"/><text text-anchor="middle" pointer-events="none" font-family="sans-serif" dy="1.5625" font-size="25" fill="#FFFFFF"/><text text-anchor="middle" pointer-events="none" x="0" y="5" font-size="10px" fill="#FFFFFF" font-family="sans-serif"> 11/3/2015</text></g><g class="node" transform="translate(179.80956563723373,220.19531613332788)"><circle class="outline" cx="0" cy="0" r="25" fill="#4C8EDA" stroke="#2870c2" stroke-width="2px"/><text text-anchor="middle" pointer-events="none" font-family="sans-serif" dy="1.5625" font-size="25" fill="#FFFFFF"/><text text-anchor="middle" pointer-events="none" x="0" y="5" font-size="10px" fill="#FFFFFF" font-family="sans-serif"> 11/1/2015</text></g><g class="node" transform="translate(255.43024452960822,64.12644963943737)"><circle class="outline" cx="0" cy="0" r="25" fill="#4C8EDA" stroke="#2870c2" stroke-width="2px"/><text text-anchor="middle" pointer-events="none" font-family="sans-serif" dy="1.5625" font-size="25" fill="#FFFFFF"/><text text-anchor="middle" pointer-events="none" x="0" y="5" font-size="10px" fill="#FFFFFF" font-family="sans-serif"> 11/29/20…</text></g><g class="node" transform="translate(-51.6442226686893,177.2764139409859)"><circle class="outline" cx="0" cy="0" r="25" fill="#4C8EDA" stroke="#2870c2" stroke-width="2px"/><text text-anchor="middle" pointer-events="none" font-family="sans-serif" dy="1.5625" font-size="25" fill="#FFFFFF"/><text text-anchor="middle" pointer-events="none" x="0" y="5" font-size="10px" fill="#FFFFFF" font-family="sans-serif"> 11/1/2015</text></g><g class="node" transform="translate(-40.434229445964185,118.30418640412313)"><circle class="outline" cx="0" cy="0" r="25" fill="#4C8EDA" stroke="#2870c2" stroke-width="2px"/><text text-anchor="middle" pointer-events="none" font-family="sans-serif" dy="1.5625" font-size="25" fill="#FFFFFF"/><text text-anchor="middle" pointer-events="none" x="0" y="5" font-size="10px" fill="#FFFFFF" font-family="sans-serif"> 11/1/2015</text></g></g></svg>