<svg xmlns="http://www.w3.org/2000/svg" width="163.74147033691406" height="243.21612548828125" viewBox="-1.317007064819336 -20.61001205444336 163.74147033691406 243.21612548828125"><title>Neo4j Graph Visualization</title><desc>Created using Neo4j (http://www.neo4j.com/)</desc><g class="layer relationships"><g class="relationship" transform="translate(133.42447989940445 8.389987336469282) rotate(521.9666170561302)"><path class="outline" fill="#A5ABB6" stroke="none" d="M 21.40063509461097,12.933012701892217 L 21.90063509461097,12.06698729810778 A 59.940692928883244 59.940692928883244 0 0 0 23.469323420865486,12.941599614880069 L 22.99549409473667,13.822216313393284 A 60.940692928883244 60.940692928883244 0 0 1 21.40063509461097,12.933012701892217 Z M 77.38550929816705,15.499185572157408 L 76.96683129316162,14.591050819973212 A 59.940692928883244 59.940692928883244 0 0 0 78.58642136248811,13.814740458767107 L 77.24932772052111,11.129190125481319 L 85.07555441381612,11.142447016391722 L 80.36921288511078,17.39547423648149 L 79.03211924314378,14.709923903195703 A 60.940692928883244 60.940692928883244 0 0 1 77.38550929816705,15.499185572157408"/><text text-anchor="middle" pointer-events="none" font-size="8px" fill="#000000" x="50.00834112152939" y="23.56880950691238" transform="rotate(180 50.00834112152939 20.56880950691238)" font-family="sans-serif">PublicTrans…</text></g><g class="relationship" transform="translate(31.247932547096987 41.65498991137344) rotate(451.91513697103045)"><path class="outline" fill="#A5ABB6" stroke="none" d="M 25 0.5 L 40.168704676990984 0.5 L 40.168704676990984 -0.5 L 25 -0.5 Z M 59.504642176990984 0.5 L 74.67334685398197 0.5 L 74.67334685398197 3.5 L 81.67334685398197 0 L 74.67334685398197 -3.5 L 74.67334685398197 -0.5 L 59.504642176990984 -0.5 Z"/><text text-anchor="middle" pointer-events="none" font-size="8px" fill="#000000" x="49.836673426990984" y="3" transform="rotate(180 49.836673426990984 0)" font-family="sans-serif">trek</text></g><g class="relationship" transform="translate(27.68299229091767 148.26875135894556) rotate(384.9830880864288)"><path class="outline" fill="#A5ABB6" stroke="none" d="M 25 0.5 L 40.50468138963259 0.5 L 40.50468138963259 -0.5 L 25 -0.5 Z M 59.84061888963259 0.5 L 75.34530027926517 0.5 L 75.34530027926517 3.5 L 82.34530027926517 0 L 75.34530027926517 -3.5 L 75.34530027926517 -0.5 L 59.84061888963259 -0.5 Z"/><text text-anchor="middle" pointer-events="none" font-size="8px" fill="#000000" x="50.17265013963259" y="3" font-family="sans-serif">trek</text></g><g class="relationship" transform="translate(133.42447989940445 8.389987336469282) rotate(521.9666170561302)"><path class="outline" fill="#A5ABB6" stroke="none" d="M 25 0.5 L 39.22171088726551 0.5 L 39.22171088726551 -0.5 L 25 -0.5 Z M 61.23342963726551 0.5 L 75.45514052453102 0.5 L 75.45514052453102 3.5 L 82.45514052453102 0 L 75.45514052453102 -3.5 L 75.45514052453102 -0.5 L 61.23342963726551 -0.5 Z"/><text text-anchor="middle" pointer-events="none" font-size="8px" fill="#000000" x="50.22757026226551" y="3" transform="rotate(180 50.22757026226551 0)" font-family="sans-serif">road</text></g><g class="relationship" transform="translate(133.42447989940445 8.389987336469282) rotate(521.9666170561302)"><path class="outline" fill="#A5ABB6" stroke="none" d="M 21.40063509461097,-12.933012701892217 L 21.90063509461097,-12.06698729810778 A 59.940692928883244 59.940692928883244 0 0 1 40.50471161044741,-19.00998564192634 L 40.31508634264994,-19.991842178194624 A 60.940692928883244 60.940692928883244 0 0 0 21.40063509461097,-12.933012701892217 Z M 59.71872866142081,-20.590101096765054 L 59.5899518667177,-19.598427492626072 A 59.940692928883244 59.940692928883244 0 0 1 78.58642136248811,-13.814740458767107 L 77.24932772052111,-11.129190125481319 L 85.07555441381612,-11.142447016391722 L 80.36921288511078,-17.39547423648149 L 79.03211924314378,-14.709923903195703 A 60.940692928883244 60.940692928883244 0 0 0 59.71872866142081,-20.590101096765054"/><text text-anchor="middle" pointer-events="none" font-size="8px" fill="#000000" x="50.00834112152939" y="-17.56880950691238" transform="rotate(180 50.00834112152939 -20.56880950691238)" font-family="sans-serif">trek</text></g></g><g class="layer nodes"><g class="node" transform="translate(133.42447989940445,8.389987336469282)"><circle class="outline" cx="0" cy="0" r="25" fill="#F16667" stroke="#eb2728" stroke-width="2px"/><text text-anchor="middle" pointer-events="none" font-family="sans-serif" dy="1.5625" font-size="25" fill="#FFFFFF"/><text text-anchor="middle" pointer-events="none" x="0" y="5" font-size="10px" fill="#FFFFFF" font-family="sans-serif"> Darjeeling</text></g><g class="node" transform="translate(124.98426023994315,193.6061172678463)"><circle class="outline" cx="0" cy="0" r="25" fill="#D9C8AE" stroke="#c0a378" stroke-width="2px"/><text text-anchor="middle" pointer-events="none" font-family="sans-serif" dy="1.5625" font-size="25" fill="#2A2C34"/><text text-anchor="middle" pointer-events="none" x="0" y="5" font-size="10px" fill="#2A2C34" font-family="sans-serif"> Sandak…</text></g><g class="node" transform="translate(31.247932547096987,41.65498991137344)"><circle class="outline" cx="0" cy="0" r="25" fill="#F16667" stroke="#eb2728" stroke-width="2px"/><text text-anchor="middle" pointer-events="none" font-family="sans-serif" dy="1.5625" font-size="25" fill="#FFFFFF"/><text text-anchor="middle" pointer-events="none" x="0" y="5" font-size="10px" fill="#FFFFFF" font-family="sans-serif"> Rimbik</text></g><g class="node" transform="translate(27.68299229091767,148.26875135894556)"><circle class="outline" cx="0" cy="0" r="25" fill="#8DCC93" stroke="#5db665" stroke-width="2px"/><text text-anchor="middle" pointer-events="none" font-family="sans-serif" dy="1.5625" font-size="25" fill="#2A2C34"/><text text-anchor="middle" pointer-events="none" x="0" y="5" font-size="10px" fill="#2A2C34" font-family="sans-serif"> BhikeBh…</text></g></g></svg>