<svg xmlns="http://www.w3.org/2000/svg" width="384.0447692871094" height="350.0310363769531" viewBox="-77.00677490234375 -81.64871215820312 384.0447692871094 350.0310363769531"><title>Neo4j Graph Visualization</title><desc>Created using Neo4j (http://www.neo4j.com/)</desc><g class="layer relationships"><g class="relationship" transform="translate(28.700324680970787 -9.060348657589598) rotate(379.8465007012393)"><path class="outline" fill="#A5ABB6" stroke="none" d="M 24.018736134675446,-6.953439040707552 L 24.277555179777966,-5.987513214418485 A 146.5056192304909 146.5056192304909 0 0 1 49.267882100153976,-10.408047448761721 L 49.179638948669975,-11.404146412829135 A 147.5056192304909 147.5056192304909 0 0 0 24.018736134675446,-6.953439040707552 Z M 71.24358955364048,-11.701832488134158 L 71.18225229781474,-10.703715390270503 A 146.5056192304909 146.5056192304909 0 0 1 96.28274442529926,-6.959004792325973 L 95.58474912068561,-4.04133405100897 L 103.20697537247455,-5.816627538446982 L 97.21340483145079,-10.84923244741531 L 96.51540952683715,-7.931561706098308 A 147.5056192304909 147.5056192304909 0 0 0 71.24358955364048,-11.701832488134158"/><text text-anchor="middle" pointer-events="none" font-size="8px" fill="#000000" x="60.212785305766765" y="-8.466193012058085" font-family="sans-serif">road</text></g><g class="relationship" transform="translate(148.64718835261633 34.2331771557554) rotate(375.798675850609)"><path class="outline" fill="#A5ABB6" stroke="none" d="M 21.40063509461097,-12.933012701892217 L 21.90063509461097,-12.06698729810778 A 87.70207902001523 87.70207902001523 0 0 1 52.67337866945429,-22.836225909174303 L 52.524256823298515,-23.825044737372423 A 88.70207902001523 88.70207902001523 0 0 0 21.40063509461097,-12.933012701892217 Z M 74.59651156398174,-24.374759364534924 L 74.49679758819806,-23.379743222438023 A 87.70207902001523 87.70207902001523 0 0 1 105.767478226144,-14.155710491319772 L 104.3986690461794,-11.486185921505012 L 112.22450375237253,-11.406743166371536 L 107.59255713276343,-17.71507658440612 L 106.22374795279885,-15.04555201459136 A 88.70207902001523 88.70207902001523 0 0 0 74.59651156398174,-24.374759364534924"/><text text-anchor="middle" pointer-events="none" font-size="8px" fill="#000000" x="63.5556623107582" y="-21.289496063329665" font-family="sans-serif">road</text></g><g class="relationship" transform="translate(278.0380094405638 70.843859194744) rotate(218.06010288136895)"><path class="outline" fill="#A5ABB6" stroke="none" d="M 21.40063509461097,12.933012701892217 L 21.90063509461097,12.06698729810778 A 44.7281703191901 44.7281703191901 0 0 0 31.95891612579745,16.333306707222512 L 31.683791879923056,17.29471538688587 A 45.7281703191901 45.7281703191901 0 0 1 21.40063509461097,12.933012701892217 Z M 53.70607398762561,18.074147714547486 L 53.49960708401855,17.095694129692838 A 44.7281703191901 44.7281703191901 0 0 0 63.83433745916034,13.551142440686709 L 62.52176752401871,10.853521235742933 L 70.34754859321941,10.938082792846876 L 65.58443070601584,17.147970713945075 L 64.27186077087421,14.4503495090013 A 45.7281703191901 45.7281703191901 0 0 1 53.70607398762561,18.074147714547486"/><text text-anchor="middle" pointer-events="none" font-size="8px" fill="#000000" x="42.66496600995498" y="21.531124748867292" transform="rotate(180 42.66496600995498 18.531124748867292)" font-family="sans-serif">road</text></g><g class="relationship" transform="translate(204.94875434191127 13.616703283431775) rotate(466.7645894698629)"><path class="outline" fill="#A5ABB6" stroke="none" d="M 25 0.5 L 60.13447265700613 0.5 L 60.13447265700613 -0.5 L 25 -0.5 Z M 79.47041015700613 0.5 L 114.60488281401226 0.5 L 114.60488281401226 3.5 L 121.60488281401226 0 L 114.60488281401226 -3.5 L 114.60488281401226 -0.5 L 79.47041015700613 -0.5 Z"/><text text-anchor="middle" pointer-events="none" font-size="8px" fill="#000000" x="69.80244140700613" y="3" transform="rotate(180 69.80244140700613 0)" font-family="sans-serif">trek</text></g><g class="relationship" transform="translate(28.700324680970787 -9.060348657589598) rotate(379.8465007012393)"><path class="outline" fill="#A5ABB6" stroke="none" d="M 24.018736134675446,6.953439040707552 L 24.277555179777966,5.987513214418485 A 146.5056192304909 146.5056192304909 0 0 0 50.5965379052523,10.519660341753621 L 50.51736372881565,11.516521139350544 A 147.5056192304909 147.5056192304909 0 0 1 24.018736134675446,6.953439040707552 Z M 69.90331994523387,11.778075804941608 L 69.8510689168712,10.779441822926657 A 146.5056192304909 146.5056192304909 0 0 0 96.28274442529926,6.959004792325973 L 95.58474912068561,4.04133405100897 L 103.20697537247455,5.816627538446982 L 97.21340483145079,10.84923244741531 L 96.51540952683715,7.931561706098308 A 147.5056192304909 147.5056192304909 0 0 1 69.90331994523387,11.778075804941608"/><text text-anchor="middle" pointer-events="none" font-size="8px" fill="#000000" x="60.212785305766836" y="14.466193012058085" font-family="sans-serif">trek</text></g><g class="relationship" transform="translate(148.64718835261633 34.2331771557554) rotate(375.798675850609)"><path class="outline" fill="#A5ABB6" stroke="none" d="M 25 0.5 L 40.502849042081095 0.5 L 40.502849042081095 -0.5 L 25 -0.5 Z M 86.9676927920811 0.5 L 102.47054183416219 0.5 L 102.47054183416219 3.5 L 109.47054183416219 0 L 102.47054183416219 -3.5 L 102.47054183416219 -0.5 L 86.9676927920811 -0.5 Z"/><text text-anchor="middle" pointer-events="none" font-size="8px" fill="#000000" x="63.735270917081095" y="3" font-family="sans-serif">twowheeler</text></g><g class="relationship" transform="translate(148.64718835261633 34.2331771557554) rotate(375.798675850609)"><path class="outline" fill="#A5ABB6" stroke="none" d="M 21.40063509461097,12.933012701892217 L 21.90063509461097,12.06698729810778 A 87.70207902001523 87.70207902001523 0 0 0 53.99026474718864,23.02461969241739 L 53.8561583498392,24.015586631416852 A 88.70207902001523 88.70207902001523 0 0 1 21.40063509461097,12.933012701892217 Z M 73.25677619503314,24.498763521625364 L 73.17216598438947,23.502349394740946 A 87.70207902001523 87.70207902001523 0 0 0 105.767478226144,14.155710491319772 L 104.3986690461794,11.486185921505012 L 112.22450375237253,11.406743166371536 L 107.59255713276343,17.71507658440612 L 106.22374795279885,15.04555201459136 A 88.70207902001523 88.70207902001523 0 0 1 73.25677619503314,24.498763521625364"/><text text-anchor="middle" pointer-events="none" font-size="8px" fill="#000000" x="63.55566231075818" y="27.289496063329665" font-family="sans-serif">trek</text></g><g class="relationship" transform="translate(278.0380094405638 70.843859194744) rotate(218.06010288136895)"><path class="outline" fill="#A5ABB6" stroke="none" d="M 25 0.5 L 26.800581400542093 0.5 L 26.800581400542093 -0.5 L 25 -0.5 Z M 59.02714390054209 0.5 L 60.827725301084186 0.5 L 60.827725301084186 3.5 L 67.82772530108419 0 L 60.827725301084186 -3.5 L 60.827725301084186 -0.5 L 59.02714390054209 -0.5 Z"/><text text-anchor="middle" pointer-events="none" font-size="8px" fill="#000000" x="42.91386265054209" y="3" transform="rotate(180 42.91386265054209 0)" font-family="sans-serif">twow…</text></g><g class="relationship" transform="translate(278.0380094405638 70.843859194744) rotate(218.06010288136895)"><path class="outline" fill="#A5ABB6" stroke="none" d="M 21.40063509461097,-12.933012701892217 L 21.90063509461097,-12.06698729810778 A 44.7281703191901 44.7281703191901 0 0 1 33.23615419139738,-16.67845787684407 L 32.98958550807977,-17.6475831960918 A 45.7281703191901 45.7281703191901 0 0 0 21.40063509461097,-12.933012701892217 Z M 52.378600912619845,-18.3338165907018 L 52.20116366547487,-17.349684473897554 A 44.7281703191901 44.7281703191901 0 0 1 63.83433745916034,-13.551142440686709 L 62.52176752401871,-10.853521235742933 L 70.34754859321941,-10.938082792846876 L 65.58443070601584,-17.147970713945075 L 64.27186077087421,-14.4503495090013 A 45.7281703191901 45.7281703191901 0 0 0 52.378600912619845,-18.3338165907018"/><text text-anchor="middle" pointer-events="none" font-size="8px" fill="#000000" x="42.66496600995497" y="-15.531124748867292" transform="rotate(180 42.66496600995497 -18.531124748867292)" font-family="sans-serif">trek</text></g><g class="relationship" transform="translate(28.700324680970787 -9.060348657589598) rotate(328.06047930839753)"><path class="outline" fill="#A5ABB6" stroke="none" d="M 21.40063509461097,12.933012701892217 L 21.90063509461097,12.06698729810778 A 33.750094772643784 33.750094772643784 0 0 0 26.8584418014874,14.414619034147915 L 26.505339365487572,15.350203701450127 A 34.750094772643784 34.750094772643784 0 0 1 21.40063509461097,12.933012701892217 Z M 48.43886778242659,16.218061570154326 L 48.16079126595329,15.257502643806717 A 33.750094772643784 33.750094772643784 0 0 0 53.2885884493859,13.308934411387751 L 51.9985559858134,10.600463211073992 L 59.823359994046754,10.75027052977087 L 55.00863173414923,16.92022934513943 L 53.71859927057673,14.211758144825671 A 34.750094772643784 34.750094772643784 0 0 1 48.43886778242659,16.218061570154326"/><text text-anchor="middle" pointer-events="none" font-size="8px" fill="#000000" x="37.42154679920593" y="20.06186312101285" font-family="sans-serif">road</text></g><g class="relationship" transform="translate(98.62040914686881 -52.648711022182304) rotate(391.9317775206572)"><path class="outline" fill="#A5ABB6" stroke="none" d="M 25 0.5 L 49.475510808950894 0.5 L 49.475510808950894 -0.5 L 25 -0.5 Z M 68.8114483089509 0.5 L 93.28695911790179 0.5 L 93.28695911790179 3.5 L 100.28695911790179 0 L 93.28695911790179 -3.5 L 93.28695911790179 -0.5 L 68.8114483089509 -0.5 Z"/><text text-anchor="middle" pointer-events="none" font-size="8px" fill="#000000" x="59.143479558950894" y="3" font-family="sans-serif">trek</text></g><g class="relationship" transform="translate(28.700324680970787 -9.060348657589598) rotate(328.06047930839753)"><path class="outline" fill="#A5ABB6" stroke="none" d="M 25 0.5 L 25.80439853999738 0.5 L 25.80439853999738 -0.5 L 25 -0.5 Z M 49.58955478999738 0.5 L 50.39395332999476 0.5 L 50.39395332999476 3.5 L 57.39395332999476 0 L 50.39395332999476 -3.5 L 50.39395332999476 -0.5 L 49.58955478999738 -0.5 Z"/><text text-anchor="middle" pointer-events="none" font-size="8px" fill="#000000" x="37.69697666499738" y="3" font-family="sans-serif">Pu…</text></g><g class="relationship" transform="translate(28.700324680970787 -9.060348657589598) rotate(328.06047930839753)"><path class="outline" fill="#A5ABB6" stroke="none" d="M 21.40063509461097,-12.933012701892217 L 21.90063509461097,-12.06698729810778 A 33.750094772643784 33.750094772643784 0 0 1 28.100655942461508,-14.855929148860263 L 27.784359748024627,-15.80458963469529 A 34.750094772643784 34.750094772643784 0 0 0 21.40063509461097,-12.933012701892217 Z M 47.12794425600002,-16.56996954553655 L 46.88759205466898,-15.599283798595074 A 33.750094772643784 33.750094772643784 0 0 1 53.2885884493859,-13.308934411387751 L 51.9985559858134,-10.600463211073992 L 59.823359994046754,-10.75027052977087 L 55.00863173414923,-16.92022934513943 L 53.71859927057673,-14.211758144825671 A 34.750094772643784 34.750094772643784 0 0 0 47.12794425600002,-16.56996954553655"/><text text-anchor="middle" pointer-events="none" font-size="8px" fill="#000000" x="37.42154679920593" y="-14.061863121012848" font-family="sans-serif">trek</text></g><g class="relationship" transform="translate(98.62040914686881 -52.648711022182304) rotate(494.2403340044297)"><path class="outline" fill="#A5ABB6" stroke="none" d="M 24.018736134675446,-6.953439040707552 L 24.277555179777966,-5.987513214418485 A 192.8727233642017 192.8727233642017 0 0 1 48.88321904553749,-10.89115039230802 L 48.751974617708846,-11.882500431478803 A 193.8727233642017 193.8727233642017 0 0 0 24.018736134675446,-6.953439040707552 Z M 95.22190862308092,-12.416042424182052 L 95.1134600543962,-11.421940363048378 A 192.8727233642017 192.8727233642017 0 0 1 119.8252244015997,-7.084538526072035 L 119.11550452511594,-4.169697587543165 L 126.74480657091436,-5.914332304031388 L 120.77151757024473,-10.970993110777195 L 120.06179769376097,-8.056152172248325 A 193.8727233642017 193.8727233642017 0 0 0 95.22190862308092,-12.416042424182052"/><text text-anchor="middle" pointer-events="none" font-size="8px" fill="#000000" x="71.97663729692204" y="-10.046747612088836" transform="rotate(180 71.97663729692204 -13.046747612088836)" font-family="sans-serif">twowheeler</text></g><g class="relationship" transform="translate(-6.752223055848543 55.555837085004754) rotate(420.32543266959874)"><path class="outline" fill="#A5ABB6" stroke="none" d="M 24.018736134675446,-6.953439040707552 L 24.277555179777966,-5.987513214418485 A 116.21814209528657 116.21814209528657 0 0 1 29.645424337405128,-7.289935785406811 L 29.43279316848829,-8.267068317873651 A 117.21814209528657 117.21814209528657 0 0 0 24.018736134675446,-6.953439040707552 Z M 75.78378946263543,-8.972570971961645 L 75.60099552528783,-7.989419723948927 A 116.21814209528657 116.21814209528657 0 0 1 81.00601689214471,-6.850969957536161 L 80.31811242203644,-3.9309036158231776 L 87.9341557678264,-5.732537250902338 L 81.9232228522891,-10.744391746486805 L 81.23531838218082,-7.824325404773822 A 117.21814209528657 117.21814209528657 0 0 0 75.78378946263543,-8.972570971961645"/><text text-anchor="middle" pointer-events="none" font-size="8px" fill="#000000" x="52.58067741278387" y="-7.434032388006216" font-family="sans-serif">twowheeler</text></g><g class="relationship" transform="translate(48.82865868241944 153.10007744909282) rotate(360.4482063870454)"><path class="outline" fill="#A5ABB6" stroke="none" d="M 24.018736134675446,6.953439040707552 L 24.277555179777966,5.987513214418485 A 119.3434717689333 119.3434717689333 0 0 0 43.762960674030914,9.508032906367859 L 43.66741327844082,10.503457788112314 A 120.3434717689333 120.3434717689333 0 0 1 24.018736134675446,6.953439040707552 Z M 63.06078070999849,10.794801861523652 L 62.99517796469192,9.79695604186601 A 119.3434717689333 119.3434717689333 0 0 0 82.57754301584784,6.863346459776064 L 81.88848250770322,3.9435526971764747 L 89.50523854660432,5.742170901205206 L 83.49629036004067,10.756404809908851 L 82.80722985189605,7.836611047309262 A 120.3434717689333 120.3434717689333 0 0 1 63.06078070999849,10.794801861523652"/><text text-anchor="middle" pointer-events="none" font-size="8px" fill="#000000" x="53.365728593341196" y="13.540522153844549" font-family="sans-serif">trek</text></g><g class="relationship" transform="translate(98.62040914686881 -52.648711022182304) rotate(494.2403340044297)"><path class="outline" fill="#A5ABB6" stroke="none" d="M 24.018736134675446,6.953439040707552 L 24.277555179777966,5.987513214418485 A 192.8727233642017 192.8727233642017 0 0 0 62.34682620183115,12.19512721435305 L 62.28538743092203,13.19323806863187 A 193.8727233642017 193.8727233642017 0 0 1 24.018736134675446,6.953439040707552 Z M 81.66196902832179,13.415709225058691 L 81.62346294231054,12.41645085939939 A 192.8727233642017 192.8727233642017 0 0 0 119.8252244015997,7.084538526072035 L 119.11550452511594,4.169697587543165 L 126.74480657091436,5.914332304031388 L 120.77151757024473,10.970993110777195 L 120.06179769376097,8.056152172248325 A 193.8727233642017 193.8727233642017 0 0 1 81.66196902832179,13.415709225058691"/><text text-anchor="middle" pointer-events="none" font-size="8px" fill="#000000" x="71.97663729692206" y="16.046747612088836" transform="rotate(180 71.97663729692206 13.046747612088836)" font-family="sans-serif">trek</text></g><g class="relationship" transform="translate(-6.752223055848543 55.555837085004754) rotate(420.32543266959874)"><path class="outline" fill="#A5ABB6" stroke="none" d="M 24.018736134675446,6.953439040707552 L 24.277555179777966,5.987513214418485 A 116.21814209528657 116.21814209528657 0 0 0 42.97991636318926,9.38933210884771 L 42.882021945225226,10.384528914977778 A 117.21814209528657 117.21814209528657 0 0 1 24.018736134675446,6.953439040707552 Z M 62.276346672524085,10.679727479481599 L 62.20878611585175,9.682012304102315 A 116.21814209528657 116.21814209528657 0 0 0 81.00601689214471,6.850969957536161 L 80.31811242203644,3.9309036158231776 L 87.9341557678264,5.732537250902338 L 81.9232228522891,10.744391746486805 L 81.23531838218082,7.824325404773822 A 117.21814209528657 117.21814209528657 0 0 1 62.276346672524085,10.679727479481599"/><text text-anchor="middle" pointer-events="none" font-size="8px" fill="#000000" x="52.58067741278386" y="13.434032388006216" font-family="sans-serif">trek</text></g><g class="relationship" transform="translate(48.82865868241944 153.10007744909282) rotate(360.4482063870454)"><path class="outline" fill="#A5ABB6" stroke="none" d="M 24.018736134675446,-6.953439040707552 L 24.277555179777966,-5.987513214418485 A 119.3434717689333 119.3434717689333 0 0 1 30.418553194114345,-7.460013432081908 L 30.211190654535866,-8.438277597417411 A 120.3434717689333 120.3434717689333 0 0 0 24.018736134675446,-6.953439040707552 Z M 76.57296679797412,-9.134764618554087 L 76.39508387752086,-8.15071296004676 A 119.3434717689333 119.3434717689333 0 0 1 82.57754301584784,-6.863346459776064 L 81.88848250770322,-3.9435526971764747 L 89.50523854660432,-5.742170901205206 L 83.49629036004067,-10.756404809908851 L 82.80722985189605,-7.836611047309262 A 120.3434717689333 120.3434717689333 0 0 0 76.57296679797412,-9.134764618554087"/><text text-anchor="middle" pointer-events="none" font-size="8px" fill="#000000" x="53.36572859334115" y="-7.540522153844549" font-family="sans-serif">twowheeler</text></g><g class="relationship" transform="translate(98.62040914686881 -52.648711022182304) rotate(420.0665695247586)"><path class="outline" fill="#A5ABB6" stroke="none" d="M 25 0.5 L 36.95972103085934 0.5 L 36.95972103085934 -0.5 L 25 -0.5 Z M 56.29565853085934 0.5 L 68.25537956171868 0.5 L 68.25537956171868 3.5 L 75.25537956171868 0 L 68.25537956171868 -3.5 L 68.25537956171868 -0.5 L 56.29565853085934 -0.5 Z"/><text text-anchor="middle" pointer-events="none" font-size="8px" fill="#000000" x="46.62768978085934" y="3" font-family="sans-serif">trek</text></g><g class="relationship" transform="translate(-6.752223055848543 55.555837085004754) rotate(468.92333005850764)"><path class="outline" fill="#A5ABB6" stroke="none" d="M 24.018736134675446,-6.953439040707552 L 24.277555179777966,-5.987513214418485 A 145.89030889357045 145.89030889357045 0 0 1 50.44124732965173,-10.497064346308605 L 50.36176639376495,-11.493900732497735 A 146.89030889357045 146.89030889357045 0 0 0 24.018736134675446,-6.953439040707552 Z M 69.74787285953718,-11.756064330655931 L 69.69537703935478,-10.757443186846416 A 145.89030889357045 145.89030889357045 0 0 1 95.97144684001313,-6.957049239447353 L 95.27363418583377,-4.039334808652735 L 102.89574928756379,-5.815105451494628 L 96.90186371225226,-10.84733514717351 L 96.2040510580729,-7.929620716378893 A 146.89030889357045 146.89030889357045 0 0 0 69.74787285953718,-11.756064330655931"/><text text-anchor="middle" pointer-events="none" font-size="8px" fill="#000000" x="60.0572505917654" y="-8.44522092908042" transform="rotate(180 60.0572505917654 -11.44522092908042)" font-family="sans-serif">trek</text></g><g class="relationship" transform="translate(-48.00677164460737 175.89060152780445) rotate(346.75627496336915)"><path class="outline" fill="#A5ABB6" stroke="none" d="M 21.40063509461097,12.933012701892217 L 21.90063509461097,12.06698729810778 A 51.66911860630556 51.66911860630556 0 0 0 23.945225943944763,13.186711412499136 L 23.484796792151265,14.074407867476125 A 52.66911860630556 52.66911860630556 0 0 1 21.40063509461097,12.933012701892217 Z M 68.83482174579792,15.578292764230198 L 68.43421456067013,14.66204286206159 A 51.66911860630556 51.66911860630556 0 0 0 70.54849585769219,13.680234107470566 L 69.22391540759268,10.988489945925089 L 77.04999564298156,11.038170417495948 L 72.31460312449154,17.269226322864537 L 70.99002267439204,14.57748216131906 A 52.66911860630556 52.66911860630556 0 0 1 68.83482174579792,15.578292764230198"/><text text-anchor="middle" pointer-events="none" font-size="8px" fill="#000000" x="46.006127082765296" y="22.4606750534479" font-family="sans-serif">twowheeler</text></g><g class="relationship" transform="translate(-6.752223055848543 55.555837085004754) rotate(468.92333005850764)"><path class="outline" fill="#A5ABB6" stroke="none" d="M 24.018736134675446,6.953439040707552 L 24.277555179777966,5.987513214418485 A 145.89030889357045 145.89030889357045 0 0 0 37.034907163526,8.800304672488096 L 36.86353293967652,9.785510679067443 A 146.89030889357045 146.89030889357045 0 0 1 24.018736134675446,6.953439040707552 Z M 83.28736773177506,10.413312841966217 L 83.14269772410391,9.42383288315935 A 145.89030889357045 145.89030889357045 0 0 0 95.97144684001313,6.957049239447353 L 95.27363418583377,4.039334808652735 L 102.89574928756379,5.815105451494628 L 96.90186371225226,10.84733514717351 L 96.2040510580729,7.929620716378893 A 146.89030889357045 146.89030889357045 0 0 1 83.28736773177506,10.413312841966217"/><text text-anchor="middle" pointer-events="none" font-size="8px" fill="#000000" x="60.057250591765445" y="14.44522092908042" transform="rotate(180 60.057250591765445 11.44522092908042)" font-family="sans-serif">twowheeler</text></g><g class="relationship" transform="translate(-48.00677164460737 175.89060152780445) rotate(346.75627496336915)"><path class="outline" fill="#A5ABB6" stroke="none" d="M 25 0.5 L 36.572629744596945 0.5 L 36.572629744596945 -0.5 L 25 -0.5 Z M 55.908567244596945 0.5 L 67.48119698919389 0.5 L 67.48119698919389 3.5 L 74.48119698919389 0 L 67.48119698919389 -3.5 L 67.48119698919389 -0.5 L 55.908567244596945 -0.5 Z"/><text text-anchor="middle" pointer-events="none" font-size="8px" fill="#000000" x="46.240598494596945" y="3" font-family="sans-serif">trek</text></g><g class="relationship" transform="translate(-48.00677164460737 175.89060152780445) rotate(346.75627496336915)"><path class="outline" fill="#A5ABB6" stroke="none" d="M 21.40063509461097,-12.933012701892217 L 21.90063509461097,-12.06698729810778 A 51.66911860630556 51.66911860630556 0 0 1 35.24690958384952,-17.457435307574528 L 35.00521231571787,-18.427787012152663 A 52.66911860630556 52.66911860630556 0 0 0 21.40063509461097,-12.933012701892217 Z M 57.05130246061017,-19.158873313323852 L 56.87442256762234,-18.17464086950958 A 51.66911860630556 51.66911860630556 0 0 1 70.54849585769219,-13.680234107470566 L 69.22391540759268,-10.988489945925089 L 77.04999564298156,-11.038170417495948 L 72.31460312449154,-17.269226322864537 L 70.99002267439204,-14.57748216131906 A 52.66911860630556 52.66911860630556 0 0 0 57.05130246061017,-19.158873313323852"/><text text-anchor="middle" pointer-events="none" font-size="8px" fill="#000000" x="46.00612708276529" y="-16.4606750534479" font-family="sans-serif">road</text></g><g class="relationship" transform="translate(-48.00677164460737 175.89060152780445) rotate(389.64951477959005)"><path class="outline" fill="#A5ABB6" stroke="none" d="M 25 0.5 L 51.00488694070462 0.5 L 51.00488694070462 -0.5 L 25 -0.5 Z M 70.34082444070462 0.5 L 96.34571138140925 0.5 L 96.34571138140925 3.5 L 103.34571138140925 0 L 96.34571138140925 -3.5 L 96.34571138140925 -0.5 L 70.34082444070462 -0.5 Z"/><text text-anchor="middle" pointer-events="none" font-size="8px" fill="#000000" x="60.67285569070462" y="3" font-family="sans-serif">trek</text></g><g class="relationship" transform="translate(63.53434598235152 239.38233885266368) rotate(319.2573365914779)"><path class="outline" fill="#A5ABB6" stroke="none" d="M 25 0.5 L 52.25001510914821 0.5 L 52.25001510914821 -0.5 L 25 -0.5 Z M 71.58595260914821 0.5 L 98.83596771829642 0.5 L 98.83596771829642 3.5 L 105.83596771829642 0 L 98.83596771829642 -3.5 L 98.83596771829642 -0.5 L 71.58595260914821 -0.5 Z"/><text text-anchor="middle" pointer-events="none" font-size="8px" fill="#000000" x="61.91798385914821" y="3" font-family="sans-serif">trek</text></g></g><g class="layer nodes"><g class="node" transform="translate(28.700324680970787,-9.060348657589598)"><circle class="outline" cx="0" cy="0" r="25" fill="#F16667" stroke="#eb2728" stroke-width="2px"/><text text-anchor="middle" pointer-events="none" font-family="sans-serif" dy="1.5625" font-size="25" fill="#FFFFFF"/><text text-anchor="middle" pointer-events="none" x="0" y="5" font-size="10px" fill="#FFFFFF" font-family="sans-serif"> Darjeeling</text></g><g class="node" transform="translate(162.6620288530769,153.99057732109674)"><circle class="outline" cx="0" cy="0" r="25" fill="#D9C8AE" stroke="#c0a378" stroke-width="2px"/><text text-anchor="middle" pointer-events="none" font-family="sans-serif" dy="1.5625" font-size="25" fill="#2A2C34"/><text text-anchor="middle" pointer-events="none" x="0" y="5" font-size="10px" fill="#2A2C34" font-family="sans-serif"> Sandak…</text></g><g class="node" transform="translate(148.64718835261633,34.2331771557554)"><circle class="outline" cx="0" cy="0" r="25" fill="#8DCC93" stroke="#5db665" stroke-width="2px"/><text text-anchor="middle" pointer-events="none" font-family="sans-serif" dy="1.5625" font-size="25" fill="#2A2C34"/><text text-anchor="middle" pointer-events="none" x="0" y="5" font-size="10px" fill="#2A2C34" font-family="sans-serif"> Tumbling</text></g><g class="node" transform="translate(278.0380094405638,70.843859194744)"><circle class="outline" cx="0" cy="0" r="25" fill="#8DCC93" stroke="#5db665" stroke-width="2px"/><text text-anchor="middle" pointer-events="none" font-family="sans-serif" dy="1.5625" font-size="25" fill="#2A2C34"/><text text-anchor="middle" pointer-events="none" x="0" y="5" font-size="10px" fill="#2A2C34" font-family="sans-serif"> Gairibus</text></g><g class="node" transform="translate(204.94875434191127,13.616703283431775)"><circle class="outline" cx="0" cy="0" r="25" fill="#8DCC93" stroke="#5db665" stroke-width="2px"/><text text-anchor="middle" pointer-events="none" font-family="sans-serif" dy="1.5625" font-size="25" fill="#2A2C34"/><text text-anchor="middle" pointer-events="none" x="0" y="5" font-size="10px" fill="#2A2C34" font-family="sans-serif"> BhikeBh…</text></g><g class="node" transform="translate(98.62040914686881,-52.648711022182304)"><circle class="outline" cx="0" cy="0" r="25" fill="#F16667" stroke="#eb2728" stroke-width="2px"/><text text-anchor="middle" pointer-events="none" font-family="sans-serif" dy="1.5625" font-size="25" fill="#FFFFFF"/><text text-anchor="middle" pointer-events="none" x="0" y="5" font-size="10px" fill="#FFFFFF" font-family="sans-serif"> Rimbik</text></g><g class="node" transform="translate(-6.752223055848543,55.555837085004754)"><circle class="outline" cx="0" cy="0" r="25" fill="#8DCC93" stroke="#5db665" stroke-width="2px"/><text text-anchor="middle" pointer-events="none" font-family="sans-serif" dy="1.5625" font-size="25" fill="#2A2C34"/><text text-anchor="middle" pointer-events="none" x="0" y="5" font-size="10px" fill="#2A2C34" font-family="sans-serif"> Sirikhola</text></g><g class="node" transform="translate(48.82865868241944,153.10007744909282)"><circle class="outline" cx="0" cy="0" r="25" fill="#8DCC93" stroke="#5db665" stroke-width="2px"/><text text-anchor="middle" pointer-events="none" font-family="sans-serif" dy="1.5625" font-size="25" fill="#2A2C34"/><text text-anchor="middle" pointer-events="none" x="0" y="5" font-size="10px" fill="#2A2C34" font-family="sans-serif"> Gurdum</text></g><g class="node" transform="translate(-48.00677164460737,175.89060152780445)"><circle class="outline" cx="0" cy="0" r="25" fill="#8DCC93" stroke="#5db665" stroke-width="2px"/><text text-anchor="middle" pointer-events="none" font-family="sans-serif" dy="1.5625" font-size="25" fill="#2A2C34"/><text text-anchor="middle" pointer-events="none" x="0" y="5" font-size="10px" fill="#2A2C34" font-family="sans-serif"> Rammam</text></g><g class="node" transform="translate(63.53434598235152,239.38233885266368)"><circle class="outline" cx="0" cy="0" r="25" fill="#D9C8AE" stroke="#c0a378" stroke-width="2px"/><text text-anchor="middle" pointer-events="none" font-family="sans-serif" dy="1.5625" font-size="25" fill="#2A2C34"/><text text-anchor="middle" pointer-events="none" x="0" y="5" font-size="10px" fill="#2A2C34" font-family="sans-serif"> Sabargr…</text></g></g></svg>